<svg width="191" height="58" viewBox="0 0 191 58" fill="none" xmlns="http://www.w3.org/2000/svg">
<mask id="path-1-outside-1_191_282" maskUnits="userSpaceOnUse" x="-5" y="-5" width="201" height="68" fill="black">
<rect fill="white" x="-5" y="-5" width="201" height="68"/>
<path d="M24.2686 3.67969H37.0859V40.2642C37.0859 43.6577 36.2925 46.6851 34.7056 49.3462C33.1431 52.0073 30.9458 54.0703 28.1138 55.5352C25.3062 57 22.1689 57.7324 18.7021 57.7324C12.8916 57.7324 8.375 56.2676 5.15234 53.3379C1.92969 50.4082 0.318359 46.2578 0.318359 40.8867H13.209C13.209 43.3281 13.624 45.0981 14.4541 46.1968C15.3086 47.2954 16.7246 47.8447 18.7021 47.8447C20.4844 47.8447 21.8516 47.1855 22.8037 45.8672C23.7803 44.5244 24.2686 42.6567 24.2686 40.2642V3.67969ZM52.8418 36.8218C52.8418 32.8667 53.6108 29.3511 55.1489 26.2749C56.687 23.1743 58.8965 20.7939 61.7773 19.1338C64.6582 17.4736 68.0396 16.6436 71.9214 16.6436C77.854 16.6436 82.5293 18.4868 85.9473 22.1733C89.3652 25.8354 91.0742 30.8281 91.0742 37.1514V37.5908C91.0742 43.7676 89.353 48.6748 85.9106 52.3125C82.4927 55.9258 77.854 57.7324 71.9946 57.7324C66.355 57.7324 61.8262 56.0479 58.4082 52.6787C54.9902 49.2852 53.147 44.6953 52.8784 38.9092L52.8418 36.8218ZM65.1831 37.5908C65.1831 41.2529 65.7568 43.9385 66.9043 45.6475C68.0518 47.3564 69.7485 48.2109 71.9946 48.2109C76.3892 48.2109 78.6353 44.8296 78.7329 38.0669V36.8218C78.7329 29.7173 76.4624 26.165 71.9214 26.165C67.7954 26.165 65.5615 29.229 65.2197 35.3569L65.1831 37.5908ZM143.048 37.5176C143.048 44.0117 141.706 49.0044 139.02 52.4956C136.334 55.9868 132.55 57.7324 127.667 57.7324C123.639 57.7324 120.392 56.1333 117.926 52.9351L117.414 57H106.354V0.75H118.695V20.562C120.99 17.9497 123.957 16.6436 127.594 16.6436C132.526 16.6436 136.334 18.4136 139.02 21.9536C141.706 25.4937 143.048 30.4741 143.048 36.895V37.5176ZM130.67 36.7485C130.67 32.9399 130.158 30.23 129.132 28.6187C128.131 26.9829 126.581 26.165 124.481 26.165C121.698 26.165 119.77 27.2271 118.695 29.3511V45.0981C119.745 47.1978 121.698 48.2476 124.555 48.2476C127.46 48.2476 129.303 46.8315 130.084 43.9995C130.475 42.6079 130.67 40.1909 130.67 36.7485ZM179.019 45.8672C179.019 44.8174 178.47 43.9751 177.371 43.3403C176.272 42.7056 174.185 42.0464 171.109 41.3628C168.033 40.6792 165.494 39.7881 163.492 38.6895C161.49 37.5664 159.964 36.2114 158.914 34.6245C157.864 33.0376 157.339 31.2188 157.339 29.168C157.339 25.5303 158.841 22.5396 161.844 20.1958C164.847 17.8276 168.777 16.6436 173.636 16.6436C178.86 16.6436 183.06 17.8276 186.233 20.1958C189.407 22.564 190.994 25.6768 190.994 29.5342H178.616C178.616 26.3604 176.944 24.7734 173.599 24.7734C172.305 24.7734 171.219 25.1396 170.34 25.8721C169.461 26.5801 169.021 27.4712 169.021 28.5454C169.021 29.644 169.559 30.5352 170.633 31.2188C171.707 31.9023 173.416 32.4639 175.76 32.9033C178.128 33.3428 180.203 33.8677 181.985 34.478C187.942 36.5288 190.921 40.2031 190.921 45.501C190.921 49.1143 189.31 52.0562 186.087 54.3267C182.889 56.5972 178.738 57.7324 173.636 57.7324C170.242 57.7324 167.215 57.1221 164.554 55.9014C161.893 54.6807 159.817 53.0205 158.328 50.9209C156.839 48.8213 156.094 46.6118 156.094 44.2925H167.63C167.679 46.1235 168.289 47.4663 169.461 48.3208C170.633 49.1509 172.134 49.5659 173.965 49.5659C175.65 49.5659 176.907 49.2241 177.737 48.5405C178.592 47.8569 179.019 46.9658 179.019 45.8672Z"/>
</mask>
<path d="M24.2686 3.67969V-1.32031H19.2686V3.67969H24.2686ZM37.0859 3.67969H42.0859V-1.32031H37.0859V3.67969ZM34.7056 49.3462L30.4112 46.7853L30.4025 46.7999L30.3939 46.8145L34.7056 49.3462ZM28.1138 55.5352L25.8167 51.0941L25.8088 51.0981L25.8009 51.1022L28.1138 55.5352ZM0.318359 40.8867V35.8867H-4.68164V40.8867H0.318359ZM13.209 40.8867H18.209V35.8867H13.209V40.8867ZM14.4541 46.1968L10.4648 49.2109L10.4859 49.2389L10.5073 49.2665L14.4541 46.1968ZM22.8037 45.8672L18.76 42.9263L18.7552 42.933L18.7503 42.9397L22.8037 45.8672ZM24.2686 8.67969H37.0859V-1.32031H24.2686V8.67969ZM32.0859 3.67969V40.2642H42.0859V3.67969H32.0859ZM32.0859 40.2642C32.0859 42.8447 31.4929 44.9713 30.4112 46.7853L39 51.9071C41.092 48.3988 42.0859 44.4708 42.0859 40.2642H32.0859ZM30.3939 46.8145C29.3257 48.6338 27.8397 50.0476 25.8167 51.0941L30.4109 59.9762C34.0519 58.093 36.9605 55.3808 39.0173 51.8778L30.3939 46.8145ZM25.8009 51.1022C23.7733 52.1601 21.4414 52.7324 18.7021 52.7324V62.7324C22.8965 62.7324 26.839 61.8399 30.4266 59.9681L25.8009 51.1022ZM18.7021 52.7324C13.7122 52.7324 10.5467 51.4845 8.51571 49.6382L1.78898 57.0376C6.20334 61.0507 12.071 62.7324 18.7021 62.7324V52.7324ZM8.51571 49.6382C6.57137 47.8706 5.31836 45.2031 5.31836 40.8867H-4.68164C-4.68164 47.3125 -2.712 52.9458 1.78898 57.0376L8.51571 49.6382ZM0.318359 45.8867H13.209V35.8867H0.318359V45.8867ZM8.20898 40.8867C8.20898 43.6706 8.63923 46.7948 10.4648 49.2109L18.4434 43.1826C18.5602 43.3371 18.4851 43.3171 18.3882 42.9038C18.2925 42.4955 18.209 41.845 18.209 40.8867H8.20898ZM10.5073 49.2665C12.6616 52.0363 15.8649 52.8447 18.7021 52.8447V42.8447C18.4364 42.8447 18.2474 42.8261 18.1232 42.806C17.9998 42.786 17.954 42.7668 17.9653 42.7712C17.9795 42.7767 18.0454 42.8046 18.1372 42.8713C18.2313 42.9395 18.3232 43.0273 18.4009 43.1271L10.5073 49.2665ZM18.7021 52.8447C21.9107 52.8447 24.8647 51.5533 26.8571 48.7946L18.7503 42.9397C18.7305 42.9672 18.7342 42.9562 18.7677 42.9276C18.7836 42.9141 18.8033 42.8991 18.8261 42.8842C18.849 42.8693 18.8716 42.8567 18.8927 42.8465C18.9373 42.825 18.9573 42.8229 18.9367 42.8272C18.9137 42.832 18.8399 42.8447 18.7021 42.8447V52.8447ZM26.8474 48.808C28.6655 46.3082 29.2686 43.2652 29.2686 40.2642H19.2686C19.2686 42.0483 18.8951 42.7407 18.76 42.9263L26.8474 48.808ZM29.2686 40.2642V3.67969H19.2686V40.2642H29.2686ZM52.8418 36.8218H47.8418V36.8656L47.8426 36.9095L52.8418 36.8218ZM55.1489 26.2749L59.6211 28.511L59.6246 28.5039L59.6281 28.4969L55.1489 26.2749ZM85.9473 22.1733L82.2807 25.5728L82.2863 25.5789L82.292 25.5849L85.9473 22.1733ZM85.9106 52.3125L82.279 48.8758L82.2783 48.8765L85.9106 52.3125ZM58.4082 52.6787L54.8854 56.2269L54.8918 56.2333L54.8982 56.2396L58.4082 52.6787ZM52.8784 38.9092L47.8792 38.9969L47.8805 39.069L47.8838 39.141L52.8784 38.9092ZM65.1831 37.5908L60.1838 37.5089L60.1831 37.5498V37.5908H65.1831ZM78.7329 38.0669L83.7324 38.1391L83.7329 38.103V38.0669H78.7329ZM65.2197 35.3569L60.2275 35.0785L60.222 35.1767L60.2204 35.275L65.2197 35.3569ZM57.8418 36.8218C57.8418 33.5262 58.4788 30.7955 59.6211 28.511L50.6768 24.0388C48.7429 27.9066 47.8418 32.2072 47.8418 36.8218H57.8418ZM59.6281 28.4969C60.7469 26.2416 62.2838 24.6127 64.2738 23.4659L59.2808 14.8016C55.5092 16.9751 52.6272 20.1071 50.6698 24.053L59.6281 28.4969ZM64.2738 23.4659C66.2766 22.3118 68.7677 21.6436 71.9214 21.6436V11.6436C67.3114 11.6436 63.0398 12.6355 59.2808 14.8016L64.2738 23.4659ZM71.9214 21.6436C76.7353 21.6436 79.9798 23.0911 82.2807 25.5728L89.6138 18.7739C85.0788 13.8825 78.9727 11.6436 71.9214 11.6436V21.6436ZM82.292 25.5849C84.6356 28.0959 86.0742 31.7485 86.0742 37.1514H96.0742C96.0742 29.9077 94.0949 23.575 89.6025 18.7617L82.292 25.5849ZM86.0742 37.1514V37.5908H96.0742V37.1514H86.0742ZM86.0742 37.5908C86.0742 42.803 84.6484 46.3719 82.279 48.8758L89.5423 55.7492C94.0576 50.9777 96.0742 44.7322 96.0742 37.5908H86.0742ZM82.2783 48.8765C79.973 51.3135 76.7455 52.7324 71.9946 52.7324V62.7324C78.9625 62.7324 85.0123 60.5381 89.543 55.7485L82.2783 48.8765ZM71.9946 52.7324C67.4214 52.7324 64.2382 51.4047 61.9182 49.1178L54.8982 56.2396C59.4142 60.691 65.2886 62.7324 71.9946 62.7324V52.7324ZM61.931 49.1305C59.575 46.7913 58.096 43.4803 57.873 38.6774L47.8838 39.141C48.198 45.9103 50.4055 51.779 54.8854 56.2269L61.931 49.1305ZM57.8776 38.8215L57.841 36.7341L47.8426 36.9095L47.8792 38.9969L57.8776 38.8215ZM60.1831 37.5908C60.1831 41.5699 60.7681 45.4781 62.7532 48.4346L71.0554 42.8603C70.7456 42.3988 70.1831 40.936 70.1831 37.5908H60.1831ZM62.7532 48.4346C64.925 51.6692 68.2619 53.2109 71.9946 53.2109V43.2109C71.511 43.2109 71.3208 43.1217 71.2864 43.1044C71.2692 43.0957 71.1911 43.0624 71.0554 42.8603L62.7532 48.4346ZM71.9946 53.2109C75.7026 53.2109 79.0031 51.6584 81.14 48.4415C83.0406 45.5803 83.678 41.9075 83.7324 38.1391L73.7334 37.9947C73.6902 40.989 73.1557 42.3882 72.8102 42.9084C72.7386 43.0162 72.687 43.0681 72.6645 43.0886C72.6437 43.1075 72.6311 43.1151 72.6189 43.1213C72.6073 43.1272 72.4456 43.2109 71.9946 43.2109V53.2109ZM83.7329 38.0669V36.8218H73.7329V38.0669H83.7329ZM83.7329 36.8218C83.7329 32.8976 83.1349 29.0965 81.243 26.1364C79.1073 22.7951 75.7405 21.165 71.9214 21.165V31.165C72.3979 31.165 72.5711 31.2549 72.5894 31.2644C72.5919 31.2657 72.6729 31.2965 72.8171 31.522C73.1956 32.1142 73.7329 33.6414 73.7329 36.8218H83.7329ZM71.9214 21.165C68.4246 21.165 65.262 22.5676 63.1113 25.5174C61.1752 28.1728 60.4219 31.5922 60.2275 35.0785L70.212 35.6354C70.3593 32.9937 70.8939 31.8172 71.1917 31.4087C71.2537 31.3236 71.2965 31.284 71.3138 31.2694C71.3298 31.2558 71.3399 31.2498 71.3518 31.244C71.3645 31.2379 71.515 31.165 71.9214 31.165V21.165ZM60.2204 35.275L60.1838 37.5089L70.1824 37.6728L70.2191 35.4389L60.2204 35.275ZM117.926 52.9351L121.886 49.8821L114.483 40.2799L112.966 52.3094L117.926 52.9351ZM117.414 57V62H121.823L122.374 57.6257L117.414 57ZM106.354 57H101.354V62H106.354V57ZM106.354 0.75V-4.25H101.354V0.75H106.354ZM118.695 0.75H123.695V-4.25H118.695V0.75ZM118.695 20.562H113.695V33.8293L122.452 23.862L118.695 20.562ZM129.132 28.6187L124.867 31.2285L124.89 31.266L124.914 31.303L129.132 28.6187ZM118.695 29.3511L114.233 27.0945L113.695 28.1586V29.3511H118.695ZM118.695 45.0981H113.695V46.2785L114.223 47.3342L118.695 45.0981ZM130.084 43.9995L125.271 42.6482L125.267 42.659L125.265 42.6699L130.084 43.9995ZM138.048 37.5176C138.048 43.4111 136.817 47.1583 135.057 49.4471L142.983 55.5442C146.594 50.8505 148.048 44.6124 148.048 37.5176H138.048ZM135.057 49.4471C133.43 51.5624 131.191 52.7324 127.667 52.7324V62.7324C133.909 62.7324 139.239 60.4112 142.983 55.5442L135.057 49.4471ZM127.667 52.7324C125.194 52.7324 123.408 51.8562 121.886 49.8821L113.967 55.988C117.376 60.4104 122.084 62.7324 127.667 62.7324V52.7324ZM112.966 52.3094L112.453 56.3743L122.374 57.6257L122.887 53.5607L112.966 52.3094ZM117.414 52H106.354V62H117.414V52ZM111.354 57V0.75H101.354V57H111.354ZM106.354 5.75H118.695V-4.25H106.354V5.75ZM113.695 0.75V20.562H123.695V0.75H113.695ZM122.452 23.862C123.749 22.3858 125.319 21.6436 127.594 21.6436V11.6436C122.594 11.6436 118.232 13.5136 114.939 17.262L122.452 23.862ZM127.594 21.6436C131.159 21.6436 133.41 22.8309 135.037 24.9755L143.003 18.9317C139.259 13.9962 133.893 11.6436 127.594 11.6436V21.6436ZM135.037 24.9755C136.826 27.3349 138.048 31.0964 138.048 36.895H148.048C148.048 29.8518 146.585 23.6524 143.003 18.9317L135.037 24.9755ZM138.048 36.895V37.5176H148.048V36.895H138.048ZM135.67 36.7485C135.67 32.7679 135.186 28.8182 133.351 25.9343L124.914 31.303C125.13 31.6417 125.67 33.112 125.67 36.7485H135.67ZM133.397 26.0088C131.389 22.7267 128.124 21.165 124.481 21.165V31.165C124.683 31.165 124.803 31.1847 124.86 31.1974C124.913 31.2094 124.915 31.216 124.886 31.2008C124.855 31.1846 124.828 31.1637 124.813 31.149C124.799 31.1363 124.822 31.1535 124.867 31.2285L133.397 26.0088ZM124.481 21.165C122.465 21.165 120.409 21.5501 118.536 22.5816C116.618 23.6377 115.186 25.2109 114.233 27.0945L123.157 31.6076C123.228 31.4679 123.281 31.4064 123.3 31.3866C123.316 31.3693 123.33 31.3574 123.359 31.3415C123.415 31.311 123.715 31.165 124.481 31.165V21.165ZM113.695 29.3511V45.0981H123.695V29.3511H113.695ZM114.223 47.3342C115.181 49.2492 116.64 50.8217 118.58 51.8643C120.464 52.877 122.532 53.2476 124.555 53.2476V43.2476C123.721 43.2476 123.384 43.0932 123.315 43.0561C123.282 43.0387 123.275 43.03 123.271 43.0256C123.265 43.0193 123.225 42.977 123.167 42.8621L114.223 47.3342ZM124.555 53.2476C126.829 53.2476 129.168 52.6825 131.162 51.1506C133.151 49.6229 134.302 47.5132 134.904 45.3292L125.265 42.6699C125.174 42.9989 125.085 43.1666 125.046 43.23C125.012 43.2843 125.016 43.2619 125.07 43.2205C125.125 43.1786 125.153 43.1764 125.106 43.1906C125.048 43.2079 124.878 43.2476 124.555 43.2476V53.2476ZM134.898 45.3508C135.494 43.2297 135.67 40.1926 135.67 36.7485H125.67C125.67 40.1892 125.456 41.9861 125.271 42.6482L134.898 45.3508ZM163.492 38.6895L161.045 43.0502L161.066 43.0616L161.086 43.0728L163.492 38.6895ZM161.844 20.1958L164.92 24.1374L164.93 24.1296L164.94 24.1218L161.844 20.1958ZM190.994 29.5342V34.5342H195.994V29.5342H190.994ZM178.616 29.5342H173.616V34.5342H178.616V29.5342ZM170.34 25.8721L173.476 29.7658L173.509 29.7398L173.541 29.7132L170.34 25.8721ZM175.76 32.9033L174.838 37.8177L174.848 37.8194L175.76 32.9033ZM181.985 34.478L183.613 29.7503L183.605 29.7477L181.985 34.478ZM186.087 54.3267L183.207 50.2392L183.2 50.2444L183.193 50.2496L186.087 54.3267ZM156.094 44.2925V39.2925H151.094V44.2925H156.094ZM167.63 44.2925L172.628 44.1592L172.498 39.2925H167.63V44.2925ZM169.461 48.3208L166.515 52.3608L166.543 52.3811L166.571 52.4009L169.461 48.3208ZM177.737 48.5405L174.614 44.6362L174.586 44.6583L174.559 44.6809L177.737 48.5405ZM184.019 45.8672C184.019 42.6324 182.137 40.3196 179.872 39.011L174.87 47.6697C174.913 47.6945 174.671 47.5655 174.419 47.1795C174.14 46.7513 174.019 46.2673 174.019 45.8672H184.019ZM179.872 39.011C178.032 37.9476 175.245 37.16 172.194 36.4819L170.024 46.2437C173.125 46.9327 174.513 47.4636 174.87 47.6697L179.872 39.011ZM172.194 36.4819C169.417 35.8649 167.361 35.1094 165.897 34.3061L161.086 43.0728C163.626 44.4667 166.648 45.4935 170.024 46.2437L172.194 36.4819ZM165.938 34.3287C164.488 33.5154 163.613 32.6657 163.084 31.8658L154.744 37.3832C156.314 39.7571 158.491 41.6174 161.045 43.0502L165.938 34.3287ZM163.084 31.8658C162.618 31.1613 162.339 30.3176 162.339 29.168H152.339C152.339 32.1199 153.11 34.9139 154.744 37.3832L163.084 31.8658ZM162.339 29.168C162.339 27.1527 163.065 25.5855 164.92 24.1374L158.767 16.2542C154.617 19.4936 152.339 23.9078 152.339 29.168H162.339ZM164.94 24.1218C166.846 22.6189 169.592 21.6436 173.636 21.6436V11.6436C167.963 11.6436 162.848 13.0363 158.748 16.2698L164.94 24.1218ZM173.636 21.6436C178.126 21.6436 181.173 22.6581 183.243 24.2032L189.224 16.1884C184.947 12.9972 179.595 11.6436 173.636 11.6436V21.6436ZM183.243 24.2032C185.192 25.6571 185.994 27.3036 185.994 29.5342H195.994C195.994 24.0499 193.623 19.4708 189.224 16.1884L183.243 24.2032ZM190.994 24.5342H178.616V34.5342H190.994V24.5342ZM183.616 29.5342C183.616 27.1077 182.964 24.3866 180.804 22.3366C178.692 20.3333 175.979 19.7734 173.599 19.7734V29.7734C173.821 29.7734 173.987 29.7867 174.103 29.8025C174.219 29.8182 174.276 29.8351 174.286 29.8382C174.295 29.8409 174.255 29.829 174.183 29.788C174.109 29.746 174.016 29.6816 173.92 29.5906C173.824 29.4992 173.745 29.4005 173.685 29.3053C173.625 29.2116 173.596 29.1403 173.585 29.1085C173.575 29.0785 173.583 29.0919 173.594 29.1627C173.604 29.2342 173.616 29.3551 173.616 29.5342H183.616ZM173.599 19.7734C171.298 19.7734 169.034 20.4518 167.139 22.031L173.541 29.7132C173.527 29.7244 173.506 29.7401 173.478 29.7558C173.45 29.7715 173.426 29.7812 173.411 29.7862C173.397 29.791 173.4 29.7882 173.428 29.784C173.456 29.7796 173.511 29.7734 173.599 29.7734V19.7734ZM167.203 21.9783C165.215 23.58 164.021 25.872 164.021 28.5454H174.021C174.021 28.7118 173.982 28.9858 173.835 29.2829C173.693 29.5727 173.526 29.7258 173.476 29.7658L167.203 21.9783ZM164.021 28.5454C164.021 31.6494 165.701 34.0066 167.948 35.4371L173.317 27.0004C173.289 26.9823 173.497 27.1086 173.707 27.4566C173.934 27.8343 174.021 28.2381 174.021 28.5454H164.021ZM167.948 35.4371C169.845 36.644 172.318 37.3451 174.838 37.8177L176.681 27.989C174.514 27.5826 173.569 27.1607 173.317 27.0004L167.948 35.4371ZM174.848 37.8194C177.038 38.2259 178.867 38.6953 180.365 39.2083L183.605 29.7477C181.539 29.04 179.218 28.4597 176.672 27.9872L174.848 37.8194ZM180.358 39.2057C182.737 40.0249 184.068 41.0144 184.803 41.9204C185.483 42.7599 185.921 43.8525 185.921 45.501H195.921C195.921 41.8516 194.869 38.4581 192.571 35.6233C190.327 32.8549 187.19 30.9819 183.613 29.7503L180.358 39.2057ZM185.921 45.501C185.921 47.3222 185.242 48.8056 183.207 50.2392L188.967 58.4141C193.377 55.3067 195.921 50.9063 195.921 45.501H185.921ZM183.193 50.2496C181.062 51.762 178.012 52.7324 173.636 52.7324V62.7324C179.465 62.7324 184.715 61.4324 188.981 58.4037L183.193 50.2496ZM173.636 52.7324C170.848 52.7324 168.549 52.2333 166.638 51.3567L162.469 60.446C165.88 62.0109 169.636 62.7324 173.636 62.7324V52.7324ZM166.638 51.3567C164.664 50.4509 163.321 49.3178 162.406 48.0282L154.25 53.8136C156.314 56.7232 159.121 58.9104 162.469 60.446L166.638 51.3567ZM162.406 48.0282C161.448 46.6768 161.094 45.4623 161.094 44.2925H151.094C151.094 47.7613 152.23 50.9658 154.25 53.8136L162.406 48.0282ZM156.094 49.2925H167.63V39.2925H156.094V49.2925ZM162.632 44.4258C162.71 47.3586 163.768 50.3576 166.515 52.3608L172.407 44.2808C172.455 44.3156 172.514 44.3688 172.571 44.4387C172.627 44.5082 172.66 44.5689 172.676 44.6038C172.706 44.6694 172.639 44.5628 172.628 44.1592L162.632 44.4258ZM166.571 52.4009C168.794 53.9756 171.384 54.5659 173.965 54.5659V44.5659C172.884 44.5659 172.472 44.3262 172.351 44.2407L166.571 52.4009ZM173.965 54.5659C176.189 54.5659 178.806 54.1373 180.916 52.4002L174.559 44.6809C174.794 44.4874 174.947 44.4611 174.86 44.4847C174.763 44.5112 174.487 44.5659 173.965 44.5659V54.5659ZM180.861 52.4449C182.907 50.808 184.019 48.4777 184.019 45.8672H174.019C174.019 45.7526 174.046 45.4992 174.19 45.1978C174.335 44.8959 174.518 44.7129 174.614 44.6362L180.861 52.4449Z" fill="black" mask="url(#path-1-outside-1_191_282)"/>
</svg>
