
<svg width="100%" height="100%" viewBox="0 0 2161 2161" version="1.1" xmlns="http://www.w3.org/2000/svg" xmlns:xlink="http://www.w3.org/1999/xlink" xml:space="preserve" xmlns:serif="http://www.serif.com/" style="fill-rule:evenodd;clip-rule:evenodd;stroke-linejoin:round;stroke-miterlimit:2;">
    <g transform="matrix(1,0,0,1,-660.142,-206.805)">
        <g transform="matrix(5.08501,0,0,5.08501,-4081.02,-5989.29)">
            <g transform="matrix(0.304534,0,0,0.304534,674.883,1045.12)">
                <path d="M2241.02,662.902L2241.02,1871.27C2241.02,1922.9 2199.1,1964.82 2147.47,1964.82L939.101,1964.82C887.467,1964.82 845.546,1922.9 845.546,1871.27L845.546,662.902C845.546,611.267 887.467,569.347 939.101,569.347L2147.47,569.347C2199.1,569.347 2241.02,611.267 2241.02,662.902Z" style="fill:rgb(0,5,158);"/>
            </g>
            <g transform="matrix(1,0,0,1,-10.9733,-20)">
                <g transform="matrix(1.11512,0,0,1.12621,545.204,-226.909)">
                    <path d="M448.626,1488.84L448.626,1578.32C448.626,1584.33 448.257,1589.49 447.521,1593.78C446.784,1598.08 445.496,1601.61 443.655,1604.37C441.814,1607.13 439.297,1609.15 436.106,1610.44C432.915,1611.73 428.865,1612.38 423.955,1612.38C417.45,1612.38 412.51,1611.12 409.134,1608.6C405.759,1606.09 403.335,1603.05 401.862,1599.49C400.389,1595.93 399.53,1592.18 399.284,1588.26C399.039,1584.33 398.855,1580.95 398.732,1578.13L386.213,1578.13C386.213,1583.9 386.704,1589.49 387.686,1594.88C388.667,1600.29 390.509,1605.04 393.209,1609.15C395.909,1613.27 399.653,1616.58 404.439,1619.1C409.226,1621.61 415.363,1622.87 422.85,1622.87C429.969,1622.87 435.953,1622.07 440.801,1620.48C445.649,1618.88 449.577,1616.49 452.584,1613.3C455.591,1610.11 457.77,1606.06 459.12,1601.14C460.47,1596.24 461.145,1590.4 461.145,1583.65L461.145,1488.84L448.626,1488.84Z" style="fill:white;fill-rule:nonzero;"/>
                    <path d="M493.548,1577.03L481.029,1577.03C480.66,1585.13 481.734,1592.06 484.251,1597.83C486.767,1603.6 490.357,1608.33 495.021,1612.01C499.685,1615.69 505.331,1618.42 511.959,1620.2C518.587,1621.98 525.767,1622.87 533.5,1622.87C541.232,1622.87 547.86,1622.16 553.383,1620.75C558.907,1619.34 563.54,1617.5 567.284,1615.23C571.027,1612.96 573.973,1610.41 576.121,1607.59C578.269,1604.77 579.926,1601.97 581.092,1599.21C582.258,1596.45 582.994,1593.84 583.301,1591.39C583.608,1588.93 583.761,1586.97 583.761,1585.5C583.761,1580.1 582.872,1575.49 581.092,1571.69C579.312,1567.88 576.857,1564.66 573.727,1562.02C570.598,1559.38 566.977,1557.17 562.865,1555.39C558.753,1553.61 554.365,1552.11 549.701,1550.88L517.666,1542.97C514.966,1542.35 512.419,1541.56 510.026,1540.57C507.632,1539.59 505.515,1538.3 503.674,1536.71C501.833,1535.11 500.391,1533.18 499.348,1530.91C498.304,1528.64 497.783,1525.97 497.783,1522.9C497.783,1517.99 498.703,1513.88 500.544,1510.56C502.385,1507.25 504.809,1504.58 507.817,1502.56C510.824,1500.53 514.322,1499.06 518.311,1498.14C522.3,1497.22 526.442,1496.76 530.738,1496.76C535.402,1496.76 539.851,1497.4 544.086,1498.69C548.32,1499.98 552.064,1501.88 555.317,1504.4C558.569,1506.91 561.208,1510.04 563.233,1513.79C565.258,1517.53 566.394,1521.92 566.639,1526.95L579.159,1526.95C579.159,1520.2 577.839,1514.28 575.2,1509.18C572.561,1504.09 569.033,1499.82 564.614,1496.39C560.195,1492.95 555.04,1490.37 549.149,1488.65C543.257,1486.94 537.059,1486.08 530.554,1486.08C521.349,1486.08 513.8,1487.4 507.909,1490.04C502.017,1492.67 497.384,1495.9 494.008,1499.7C490.633,1503.51 488.332,1507.56 487.104,1511.85C485.877,1516.15 485.263,1519.89 485.263,1523.08C485.263,1528.24 486.092,1532.6 487.749,1536.15C489.406,1539.71 491.584,1542.72 494.285,1545.18C496.985,1547.63 500.145,1549.6 503.766,1551.07C507.387,1552.54 511.1,1553.77 514.905,1554.75L544.178,1561.93C547.247,1562.67 550.376,1563.62 553.568,1564.78C556.759,1565.95 559.674,1567.45 562.313,1569.29C564.952,1571.13 567.1,1573.41 568.757,1576.11C570.414,1578.81 571.242,1582 571.242,1585.68C571.242,1590.47 570.076,1594.55 567.744,1597.92C565.412,1601.3 562.497,1604.06 558.999,1606.21C555.501,1608.36 551.726,1609.92 547.676,1610.9C543.626,1611.88 539.882,1612.38 536.445,1612.38C530.431,1612.38 524.785,1611.79 519.507,1610.63C514.23,1609.46 509.658,1607.53 505.791,1604.83C501.925,1602.13 498.887,1598.51 496.678,1593.97C494.469,1589.42 493.425,1583.78 493.548,1577.03Z" style="fill:white;fill-rule:nonzero;"/>
                </g>
                <g transform="matrix(1,0,0,1,17,0)">
                    <g transform="matrix(0.765117,0,0,0.765117,1148.38,595.254)">
                        <path d="M143.869,1263.62C135.969,1248.88 119.981,1234.03 95.903,1219.07C84.662,1212.08 79.041,1203.12 79.041,1192.18C79.041,1187.55 79.839,1183.07 81.434,1178.74C83.029,1174.56 85.421,1170.8 88.611,1167.46C91.65,1164.27 95.144,1161.73 99.093,1159.83C102.891,1158.08 107.012,1157.2 111.455,1157.2C115.898,1157.2 120.019,1158.08 123.817,1159.83C127.766,1161.65 131.298,1164.19 134.412,1167.46C137.45,1170.65 139.805,1174.41 141.476,1178.74C143.071,1182.84 143.869,1187.32 143.869,1192.18C143.869,1187.32 144.704,1182.84 146.375,1178.74C148.046,1174.41 150.401,1170.65 153.439,1167.46C156.553,1164.19 160.085,1161.65 164.035,1159.83C167.832,1158.08 171.953,1157.2 176.396,1157.2C180.84,1157.2 184.96,1158.08 188.758,1159.83C192.708,1161.73 196.202,1164.27 199.24,1167.46C202.43,1170.8 204.822,1174.56 206.417,1178.74C208.013,1183.07 208.81,1187.55 208.81,1192.18C208.81,1203.27 203.189,1212.24 191.948,1219.07C167.87,1234.03 151.844,1248.88 143.869,1263.62Z" style="fill:rgb(254,48,48);fill-rule:nonzero;"/>
                    </g>
                    <g transform="matrix(0.978491,0,0,0.978491,-167.912,104.464)">
                        <g opacity="0.41">
                            <g transform="matrix(1.34675,0,0,1.34675,69.2155,-635.113)">
                                <path d="M985.28,1584.13L985.28,1606.73L1000.25,1606.73L1000.25,1604.2L988.286,1604.2L988.286,1584.13L985.28,1584.13Z" style="fill:white;fill-rule:nonzero;"/>
                            </g>
                            <g transform="matrix(1.34675,0,0,1.34675,69.2155,-635.113)">
                                <path d="M1004.39,1598.56C1004.39,1597.57 1004.53,1596.69 1004.79,1595.92C1005.05,1595.zs kdkfaknfkanf15 1005.42,1594.5 1005.88,1593.98C1006.35,1593.45 1006.89,1593.05 1007.51,1592.77C1008.13,1592.5 1008.79,1592.36 1009.49,1592.36C1010.19,1592.36 1010.84,1592.5 1011.47,1592.77C1012.09,1593.05 1012.63,1593.45 1013.1,1593.98C1013.56,1594.5 1013.92,1595.15 1014.19,1595.92C1014.45,1596.69 1014.58,1597.57 1014.58,1598.56C1014.58,1599.56 1014.45,1600.44 1014.19,1601.21C1013.92,1601.98 1013.56,1602.62 1013.1,1603.14C1012.63,1603.65 1012.09,1604.05 1011.47,1604.32C1010.84,1604.6 1010.19,1604.74 1009.49,1604.74C1008.79,1604.74 1008.13,1604.6 1007.51,1604.32C1006.89,1604.05 1006.35,1603.65 1005.88,1603.14C1005.42,1602.62 1005.05,1601.98 1004.79,1601.21C1004.53,1600.44 1004.39,1599.56 1004.39,1598.56ZM1001.55,1598.56C1001.55,1599.77 1001.71,1600.88 1002.05,1601.92C1002.39,1602.95 1002.9,1603.85 1003.57,1604.62C1004.25,1605.39 1005.08,1606 1006.07,1606.43C1007.06,1606.86 1008.2,1607.08 1009.49,1607.08C1010.8,1607.08 1011.94,1606.86 1012.92,1606.43C1013.9,1606 1014.73,1605.39 1015.41,1604.62C1016.08,1603.85 1016.59,1602.95 1016.93,1601.92C1017.26,1600.88 1017.43,1599.77 1017.43,1598.56C1017.43,1597.36 1017.26,1596.24 1016.93,1595.19C1016.59,1594.15 1016.08,1593.24 1015.41,1592.47C1014.73,1591.7 1013.9,1591.1 1012.92,1590.65C1011.94,1590.21 1010.8,1589.99 1009.49,1589.99C1008.2,1589.99 1007.06,1590.21 1006.07,1590.65C1005.08,1591.1 1004.25,1591.7 1003.57,1592.47C1002.9,1593.24 1002.39,1594.15 1002.05,1595.19C1001.71,1596.24 1001.55,1597.36 1001.55,1598.56Z" style="fill:white;fill-rule:nonzero;"/>
                            </g>
                            <g transform="matrix(1.34675,0,0,1.34675,69.2155,-635.113)">
                                <path d="M1027.97,1606.73L1033.95,1590.37L1031.13,1590.37L1026.67,1604.01L1026.61,1604.01L1022.02,1590.37L1019.01,1590.37L1025.09,1606.73L1027.97,1606.73Z" style="fill:white;fill-rule:nonzero;"/>
                            </g>
                            <g transform="matrix(1.34675,0,0,1.34675,69.2155,-635.113)">
                                <path d="M1047.78,1596.98L1038.38,1596.98C1038.42,1596.35 1038.56,1595.75 1038.79,1595.19C1039.03,1594.63 1039.34,1594.14 1039.74,1593.72C1040.14,1593.3 1040.62,1592.97 1041.18,1592.73C1041.74,1592.48 1042.37,1592.36 1043.07,1592.36C1043.74,1592.36 1044.36,1592.48 1044.92,1592.73C1045.47,1592.97 1045.96,1593.3 1046.37,1593.71C1046.78,1594.12 1047.11,1594.61 1047.35,1595.18C1047.6,1595.75 1047.74,1596.35 1047.78,1596.98ZM1050.38,1601.54L1047.72,1601.54C1047.49,1602.62 1047.01,1603.42 1046.28,1603.94C1045.55,1604.47 1044.62,1604.74 1043.48,1604.74C1042.59,1604.74 1041.82,1604.59 1041.17,1604.29C1040.51,1604 1039.97,1603.6 1039.55,1603.11C1039.13,1602.61 1038.82,1602.04 1038.63,1601.4C1038.44,1600.75 1038.36,1600.07 1038.38,1599.36L1050.63,1599.36C1050.67,1598.36 1050.58,1597.32 1050.36,1596.22C1050.14,1595.12 1049.74,1594.11 1049.16,1593.18C1048.58,1592.26 1047.81,1591.49 1046.85,1590.89C1045.89,1590.29 1044.68,1589.99 1043.22,1589.99C1042.11,1589.99 1041.08,1590.2 1040.14,1590.62C1039.2,1591.04 1038.39,1591.63 1037.7,1592.39C1037.02,1593.15 1036.48,1594.05 1036.1,1595.08C1035.72,1596.12 1035.53,1597.26 1035.53,1598.5C1035.58,1599.75 1035.76,1600.89 1036.09,1601.95C1036.41,1603.01 1036.9,1603.91 1037.56,1604.67C1038.21,1605.43 1039.02,1606.02 1039.98,1606.44C1040.94,1606.87 1042.07,1607.08 1043.38,1607.08C1045.24,1607.08 1046.78,1606.61 1048,1605.68C1049.22,1604.76 1050.02,1603.37 1050.38,1601.54Z" style="fill:white;fill-rule:nonzero;"/>
                            </g>
                            <g transform="matrix(1.34675,0,0,1.34675,69.2155,-635.113)">
                                <path d="M1053.32,1590.37L1053.32,1606.73L1056.01,1606.73L1056.01,1599.45C1056.01,1598.39 1056.11,1597.46 1056.32,1596.65C1056.54,1595.84 1056.87,1595.15 1057.34,1594.58C1057.8,1594.01 1058.41,1593.58 1059.17,1593.28C1059.93,1592.98 1060.85,1592.84 1061.93,1592.84L1061.93,1589.99C1060.47,1589.95 1059.27,1590.24 1058.32,1590.87C1057.37,1591.51 1056.57,1592.49 1055.91,1593.82L1055.85,1593.82L1055.85,1590.37L1053.32,1590.37Z" style="fill:white;fill-rule:nonzero;"/>
                            </g>
                            <g transform="matrix(1.34675,0,0,1.34675,69.2155,-635.113)">
                                <path d="M1065.6,1601.57L1062.91,1601.57C1062.95,1602.58 1063.16,1603.44 1063.54,1604.15C1063.92,1604.86 1064.43,1605.43 1065.06,1605.86C1065.69,1606.29 1066.42,1606.6 1067.24,1606.79C1068.07,1606.98 1068.93,1607.08 1069.84,1607.08C1070.66,1607.08 1071.49,1607 1072.32,1606.84C1073.15,1606.68 1073.9,1606.4 1074.57,1606C1075.23,1605.6 1075.77,1605.07 1076.18,1604.42C1076.59,1603.77 1076.8,1602.94 1076.8,1601.95C1076.8,1601.17 1076.65,1600.52 1076.34,1599.99C1076.04,1599.46 1075.63,1599.02 1075.14,1598.67C1074.64,1598.33 1074.07,1598.05 1073.43,1597.84C1072.79,1597.62 1072.13,1597.45 1071.45,1597.3C1070.82,1597.15 1070.18,1597.01 1069.55,1596.87C1068.92,1596.73 1068.35,1596.57 1067.84,1596.37C1067.34,1596.16 1066.92,1595.91 1066.59,1595.61C1066.27,1595.3 1066.1,1594.91 1066.1,1594.45C1066.1,1594.03 1066.21,1593.68 1066.42,1593.42C1066.63,1593.16 1066.9,1592.95 1067.24,1592.79C1067.58,1592.63 1067.95,1592.52 1068.37,1592.46C1068.78,1592.39 1069.18,1592.36 1069.58,1592.36C1070.03,1592.36 1070.46,1592.41 1070.9,1592.5C1071.33,1592.6 1071.72,1592.75 1072.08,1592.96C1072.44,1593.17 1072.74,1593.45 1072.97,1593.8C1073.2,1594.15 1073.34,1594.59 1073.38,1595.12L1076.07,1595.12C1076.01,1594.12 1075.8,1593.3 1075.44,1592.63C1075.08,1591.97 1074.6,1591.44 1074,1591.05C1073.4,1590.66 1072.71,1590.38 1071.93,1590.23C1071.14,1590.07 1070.29,1589.99 1069.36,1589.99C1068.64,1589.99 1067.92,1590.08 1067.19,1590.26C1066.47,1590.44 1065.81,1590.71 1065.23,1591.08C1064.65,1591.45 1064.18,1591.93 1063.81,1592.52C1063.44,1593.11 1063.26,1593.82 1063.26,1594.64C1063.26,1595.69 1063.52,1596.52 1064.05,1597.11C1064.57,1597.7 1065.23,1598.16 1066.02,1598.49C1066.82,1598.81 1067.67,1599.07 1068.6,1599.24C1069.53,1599.42 1070.39,1599.62 1071.18,1599.85C1071.97,1600.07 1072.63,1600.36 1073.16,1600.72C1073.69,1601.08 1073.95,1601.6 1073.95,1602.3C1073.95,1602.81 1073.83,1603.22 1073.57,1603.55C1073.32,1603.88 1073,1604.12 1072.61,1604.29C1072.22,1604.46 1071.79,1604.58 1071.33,1604.64C1070.86,1604.7 1070.42,1604.74 1070,1604.74C1069.45,1604.74 1068.91,1604.68 1068.4,1604.58C1067.88,1604.47 1067.42,1604.3 1067.01,1604.06C1066.59,1603.81 1066.26,1603.49 1066.01,1603.07C1065.76,1602.66 1065.62,1602.16 1065.6,1601.57Z" style="fill:white;fill-rule:nonzero;"/>
                            </g>
                        </g>
                    </g>
                </g>
            </g>
        </g>
    </g>
</svg>
