<svg width="541" height="311" viewBox="0 0 541 311" fill="none" xmlns="http://www.w3.org/2000/svg">
<path d="M378.565 175.154C373.584 175.154 373.06 170.131 373.06 168.011C373.06 167.4 372.83 166.814 372.42 166.381C372.01 165.949 371.454 165.707 370.875 165.707C370.296 165.707 369.74 165.949 369.33 166.381C368.92 166.814 368.69 167.4 368.69 168.011C368.69 170.177 368.166 175.154 363.185 175.154C362.605 175.154 362.05 175.397 361.64 175.829C361.23 176.261 361 176.847 361 177.458C361 178.069 361.23 178.655 361.64 179.087C362.05 179.52 362.605 179.762 363.185 179.762C368.166 179.762 368.69 184.785 368.69 186.905C368.69 187.516 368.92 188.103 369.33 188.535C369.74 188.967 370.296 189.21 370.875 189.21C371.454 189.21 372.01 188.967 372.42 188.535C372.83 188.103 373.06 187.516 373.06 186.905C373.06 184.739 373.584 179.762 378.565 179.762C378.853 179.765 379.138 179.708 379.405 179.593C379.671 179.478 379.913 179.309 380.116 179.094C380.32 178.88 380.481 178.624 380.59 178.343C380.698 178.062 380.753 177.761 380.75 177.458C380.748 176.847 380.518 176.262 380.108 175.831C379.699 175.399 379.144 175.156 378.565 175.154Z" fill="#383A48"/>
<path d="M89.4226 45.9897H114.576C119.176 45.9897 123.588 47.9877 126.841 51.5442C130.093 55.1006 131.921 59.9242 131.921 64.9537V76.2047C131.921 79.466 131.153 82.6723 129.691 85.5147C128.229 88.3571 126.121 90.7397 123.572 92.4326L123.292 104.816L106.918 92.3383H89.4011C84.801 92.3383 80.3894 90.3403 77.1367 86.7839C73.884 83.2274 72.0566 78.4039 72.0566 73.3743V64.9773C72.061 59.943 73.892 55.1161 77.1478 51.5563C80.4036 47.9965 84.8182 45.9945 89.4226 45.9897Z" fill="#7FD6C2"/>
<path d="M123.314 105.995C123.091 105.994 122.873 105.92 122.688 105.783L106.595 93.5176H89.423C84.5384 93.5124 79.8552 91.3885 76.4013 87.612C72.9473 83.8355 71.0048 78.715 71 73.3743V64.9773C71.0048 59.6366 72.9473 54.5161 76.4013 50.7396C79.8552 46.9632 84.5384 44.8392 89.423 44.834H114.577C119.461 44.8392 124.145 46.9632 127.599 50.7396C131.052 54.5161 132.995 59.6366 133 64.9773V76.2283C133.014 79.5853 132.254 82.8921 130.791 85.8436C129.328 88.7951 127.209 91.2964 124.63 93.1167L124.371 104.863C124.367 105.074 124.311 105.28 124.209 105.459C124.106 105.638 123.961 105.782 123.788 105.877C123.64 105.955 123.478 105.995 123.314 105.995ZM89.423 47.1691C85.11 47.1725 80.9746 49.0473 77.9248 52.3818C74.8751 55.7164 73.1604 60.238 73.1573 64.9537V73.3507C73.1604 78.0665 74.8751 82.5881 77.9248 85.9226C80.9746 89.2572 85.11 91.132 89.423 91.1354H106.94C107.163 91.1366 107.381 91.2105 107.566 91.3476L122.278 102.575L122.494 92.3855C122.495 92.1855 122.543 91.9892 122.633 91.8156C122.724 91.642 122.854 91.497 123.012 91.3948C125.41 89.8168 127.392 87.5852 128.764 84.9185C130.137 82.2518 130.853 79.2412 130.843 76.1812V64.9301C130.839 60.2144 129.125 55.6928 126.075 52.3582C123.025 49.0237 118.89 47.1489 114.577 47.1455H89.423V47.1691Z" fill="#383A48"/>
<path d="M113.823 72.3365C115.265 72.3365 116.433 71.0587 116.433 69.4824C116.433 67.9062 115.265 66.6284 113.823 66.6284C112.382 66.6284 111.213 67.9062 111.213 69.4824C111.213 71.0587 112.382 72.3365 113.823 72.3365Z" fill="#F3F6E6"/>
<path d="M113.822 73.5394C113.092 73.5394 112.379 73.3029 111.772 72.8597C111.166 72.4165 110.693 71.7866 110.414 71.0496C110.134 70.3125 110.061 69.5016 110.204 68.7192C110.346 67.9368 110.697 67.2181 111.213 66.654C111.729 66.0899 112.386 65.7058 113.102 65.5502C113.818 65.3945 114.559 65.4744 115.233 65.7797C115.908 66.085 116.484 66.6019 116.889 67.2652C117.294 67.9285 117.511 68.7083 117.511 69.506C117.511 70.0358 117.416 70.5604 117.23 71.0498C117.045 71.5393 116.773 71.984 116.431 72.3586C116.088 72.7332 115.681 73.0303 115.234 73.2329C114.786 73.4355 114.306 73.5397 113.822 73.5394ZM113.822 67.8078C113.519 67.8078 113.223 67.906 112.971 68.09C112.719 68.274 112.523 68.5356 112.407 68.8416C112.291 69.1476 112.26 69.4843 112.32 69.8092C112.379 70.134 112.524 70.4324 112.739 70.6666C112.953 70.9008 113.226 71.0603 113.523 71.125C113.82 71.1896 114.128 71.1564 114.408 71.0297C114.688 70.9029 114.927 70.6883 115.095 70.4129C115.264 70.1375 115.353 69.8137 115.353 69.4825C115.352 69.0388 115.19 68.6138 114.903 68.3001C114.616 67.9864 114.227 67.8095 113.822 67.8078Z" fill="#F3F6E6"/>
<path d="M102.409 72.3365C103.851 72.3365 105.019 71.0587 105.019 69.4824C105.019 67.9062 103.851 66.6284 102.409 66.6284C100.967 66.6284 99.7988 67.9062 99.7988 69.4824C99.7988 71.0587 100.967 72.3365 102.409 72.3365Z" fill="#F3F6E6"/>
<path d="M102.41 73.5394C101.68 73.5394 100.967 73.3029 100.36 72.8597C99.7535 72.4165 99.2807 71.7866 99.0015 71.0496C98.7223 70.3125 98.6492 69.5016 98.7916 68.7192C98.9339 67.9368 99.2853 67.2181 99.8012 66.654C100.317 66.0899 100.974 65.7058 101.69 65.5502C102.406 65.3945 103.147 65.4744 103.821 65.7797C104.495 66.085 105.071 66.6019 105.477 67.2652C105.882 67.9285 106.099 68.7083 106.099 69.506C106.099 70.0358 106.003 70.5604 105.818 71.0498C105.633 71.5393 105.361 71.984 105.019 72.3586C104.676 72.7332 104.269 73.0303 103.822 73.2329C103.374 73.4355 102.894 73.5397 102.41 73.5394ZM102.41 67.8078C102.107 67.8078 101.811 67.906 101.559 68.09C101.307 68.274 101.11 68.5356 100.995 68.8416C100.879 69.1476 100.848 69.4843 100.907 69.8092C100.966 70.134 101.112 70.4324 101.327 70.6666C101.541 70.9008 101.814 71.0603 102.111 71.125C102.408 71.1896 102.716 71.1564 102.996 71.0297C103.276 70.9029 103.515 70.6883 103.683 70.4129C103.851 70.1375 103.941 69.8137 103.941 69.4825C103.94 69.0388 103.778 68.6138 103.491 68.3001C103.204 67.9864 102.815 67.8095 102.41 67.8078Z" fill="#F3F6E6"/>
<path d="M90.997 72.3365C92.4387 72.3365 93.6074 71.0587 93.6074 69.4824C93.6074 67.9062 92.4387 66.6284 90.997 66.6284C89.5554 66.6284 88.3867 67.9062 88.3867 69.4824C88.3867 71.0587 89.5554 72.3365 90.997 72.3365Z" fill="#F3F6E6"/>
<path d="M90.9975 73.5394C90.2679 73.5394 89.5547 73.3029 88.9481 72.8597C88.3414 72.4165 87.8686 71.7866 87.5894 71.0496C87.3102 70.3125 87.2371 69.5016 87.3795 68.7192C87.5218 67.9368 87.8732 67.2181 88.3891 66.654C88.905 66.0899 89.5623 65.7058 90.2779 65.5502C90.9934 65.3945 91.7352 65.4744 92.4092 65.7797C93.0833 66.085 93.6594 66.6019 94.0648 67.2652C94.4701 67.9285 94.6865 68.7083 94.6865 69.506C94.6867 70.0358 94.5914 70.5604 94.4061 71.0498C94.2208 71.5393 93.9491 71.984 93.6065 72.3586C93.2639 72.7332 92.8572 73.0303 92.4095 73.2329C91.9618 73.4355 91.482 73.5397 90.9975 73.5394ZM90.9975 67.8078C90.6946 67.8078 90.3985 67.906 90.1466 68.09C89.8947 68.274 89.6984 68.5356 89.5825 68.8416C89.4665 69.1476 89.4362 69.4843 89.4953 69.8092C89.5544 70.134 89.7003 70.4324 89.9145 70.6666C90.1287 70.9008 90.4016 71.0603 90.6987 71.125C90.9958 71.1896 91.3038 71.1564 91.5837 71.0297C91.8635 70.9029 92.1028 70.6883 92.2711 70.4129C92.4394 70.1375 92.5292 69.8137 92.5292 69.4825C92.5277 69.0388 92.3658 68.6138 92.0789 68.3001C91.792 67.9864 91.4033 67.8095 90.9975 67.8078Z" fill="#F3F6E6"/>
<path d="M379.079 247.721H341.938C331.632 247.721 323.304 257.033 323.304 268.493V290.412L312.277 305.11H341.938H379.079C389.386 305.11 397.714 295.798 397.714 284.338V268.493C397.714 257.004 389.36 247.721 379.079 247.721Z" fill="#E0719E"/>
<path d="M379.08 306.543H312.278C311.79 306.543 311.327 306.228 311.122 305.712C310.916 305.196 310.968 304.623 311.302 304.193L322.02 289.896V268.493C322.02 256.259 330.964 246.288 341.94 246.288H379.08C390.055 246.288 399 256.259 399 268.493V284.338C399 296.601 390.055 306.543 379.08 306.543ZM315.003 303.678H379.055C388.616 303.678 396.404 294.996 396.404 284.338V268.493C396.404 257.835 388.616 249.153 379.055 249.153H341.914C332.352 249.153 324.564 257.835 324.564 268.493V290.412C324.564 290.756 324.462 291.071 324.256 291.329L315.003 303.678Z" fill="#383A48"/>
<path d="M346.515 280.011C348.289 280.011 349.727 278.408 349.727 276.43C349.727 274.452 348.289 272.848 346.515 272.848C344.74 272.848 343.302 274.452 343.302 276.43C343.302 278.408 344.74 280.011 346.515 280.011Z" fill="#F3F6E6"/>
<path d="M346.515 281.444C344.021 281.444 342.017 279.18 342.017 276.43C342.017 273.679 344.047 271.416 346.515 271.416C348.982 271.416 351.013 273.679 351.013 276.43C351.013 279.18 348.982 281.444 346.515 281.444ZM346.515 274.281C345.461 274.281 344.587 275.255 344.587 276.43C344.587 277.604 345.461 278.578 346.515 278.578C347.568 278.578 348.442 277.604 348.442 276.43C348.442 275.255 347.568 274.281 346.515 274.281Z" fill="#F3F6E6"/>
<path d="M360.497 280.011C362.271 280.011 363.71 278.408 363.71 276.43C363.71 274.452 362.271 272.848 360.497 272.848C358.723 272.848 357.284 274.452 357.284 276.43C357.284 278.408 358.723 280.011 360.497 280.011Z" fill="#F3F6E6"/>
<path d="M360.497 281.444C358.004 281.444 355.999 279.18 355.999 276.43C355.999 273.679 358.03 271.416 360.497 271.416C362.964 271.416 364.995 273.679 364.995 276.43C364.995 279.18 362.99 281.444 360.497 281.444ZM360.497 274.281C359.443 274.281 358.569 275.255 358.569 276.43C358.569 277.604 359.443 278.578 360.497 278.578C361.551 278.578 362.425 277.604 362.425 276.43C362.425 275.255 361.551 274.281 360.497 274.281Z" fill="#F3F6E6"/>
<path d="M374.505 280.011C376.279 280.011 377.718 278.408 377.718 276.43C377.718 274.452 376.279 272.848 374.505 272.848C372.73 272.848 371.292 274.452 371.292 276.43C371.292 278.408 372.73 280.011 374.505 280.011Z" fill="#F3F6E6"/>
<path d="M374.505 281.444C372.012 281.444 370.007 279.18 370.007 276.43C370.007 273.679 372.037 271.416 374.505 271.416C376.972 271.416 379.003 273.679 379.003 276.43C379.003 279.18 376.972 281.444 374.505 281.444ZM374.505 274.281C373.451 274.281 372.577 275.255 372.577 276.43C372.577 277.604 373.451 278.578 374.505 278.578C375.559 278.578 376.433 277.604 376.433 276.43C376.433 275.255 375.559 274.281 374.505 274.281Z" fill="#F3F6E6"/>
<path d="M335.513 172.615C335.528 186.434 333.039 200.121 328.189 212.893C323.34 225.664 316.224 237.269 307.251 247.042C298.277 256.816 287.621 264.567 275.893 269.852C264.165 275.136 251.594 277.851 238.902 277.84C185.52 277.84 142.256 230.735 142.256 172.615C142.256 114.495 185.52 67.3892 238.902 67.3892C274.646 67.3892 305.872 88.5371 322.598 119.965C328.01 130.141 331.806 141.238 333.827 152.788C334.939 159.328 335.503 165.964 335.513 172.615Z" fill="#AAC6FC"/>
<path d="M238.867 279.676C219.419 279.675 200.407 273.396 184.237 261.631C168.067 249.867 155.463 233.146 148.021 213.584C140.578 194.021 138.631 172.495 142.424 151.727C146.218 130.959 155.582 111.882 169.333 96.9083C184.736 80.1439 204.814 69.4192 226.417 66.4159C248.021 63.4125 269.929 68.3004 288.707 80.3131C303.335 89.7094 315.495 103.049 324.013 119.047C329.525 129.391 333.391 140.674 335.445 152.422C336.604 159.079 337.191 165.839 337.198 172.615C337.202 181.491 336.194 190.334 334.197 198.94C327.723 226.88 310.761 251.148 287.729 265.541C272.853 274.812 256.008 279.685 238.867 279.676ZM238.867 69.2251C220.085 69.2229 201.725 75.2852 186.109 86.6451C170.492 98.0051 158.321 114.152 151.134 133.045C143.947 151.937 142.068 172.725 145.733 192.781C149.399 212.836 158.445 231.257 171.727 245.715C186.47 261.764 205.653 272.088 226.318 275.094C246.982 278.099 267.981 273.62 286.077 262.346C308.333 248.431 324.688 225.007 330.96 198.022C332.89 189.704 333.864 181.157 333.86 172.578C333.857 166.037 333.293 159.51 332.174 153.082C330.195 141.737 326.466 130.838 321.147 120.847C312.816 105.121 300.822 92.0671 286.375 83.0034C271.928 73.9396 255.54 69.1869 238.867 69.2251Z" fill="#383A48"/>
<path d="M332.646 197.985C330.715 206.455 327.827 214.631 324.047 222.327L306.377 212.891C303.166 211.179 299.58 210.478 296.022 210.867C292.465 211.256 289.079 212.72 286.245 215.094L249.084 246.265C246.963 248.047 244.499 249.282 241.877 249.88C239.255 250.478 236.543 250.422 233.943 249.716C232.904 249.431 231.889 249.05 230.908 248.578C228.778 247.533 226.857 246.04 225.257 244.186C223.656 242.332 222.407 240.153 221.58 237.773C220.753 235.393 220.365 232.859 220.438 230.316C220.511 227.773 221.044 225.27 222.006 222.951L245.611 166.043C247.363 161.804 250.425 158.369 254.264 156.337C258.103 154.304 262.475 153.802 266.619 154.918C267.875 155.258 269.095 155.738 270.261 156.35C272.435 157.508 274.798 158.185 277.214 158.341C279.63 158.497 282.05 158.129 284.334 157.258C286.618 156.387 288.72 155.03 290.519 153.267C292.317 151.504 293.776 149.37 294.81 146.987L295.35 145.739C296.42 143.28 297.942 141.086 299.822 139.292C301.702 137.498 303.9 136.143 306.279 135.311C308.659 134.478 311.17 134.185 313.658 134.451C316.145 134.716 318.556 135.534 320.742 136.854L331.702 143.5C334.698 154.797 335.93 166.563 335.344 178.305C335.033 184.945 334.129 191.536 332.646 197.985Z" fill="#F6E049"/>
<path d="M238.295 252.103C236.704 252.097 235.12 251.887 233.574 251.479C232.438 251.179 231.332 250.761 230.269 250.23C227.936 249.088 225.832 247.456 224.078 245.427C222.325 243.398 220.956 241.012 220.051 238.407C219.146 235.801 218.722 233.026 218.803 230.242C218.884 227.458 219.469 224.718 220.524 222.18L244.129 165.271C246.041 160.637 249.389 156.88 253.586 154.659C257.783 152.438 262.564 151.893 267.093 153.119C268.468 153.486 269.803 154.015 271.072 154.698C273.047 155.746 275.194 156.357 277.387 156.496C279.581 156.635 281.778 156.298 283.851 155.506C285.924 154.714 287.832 153.481 289.465 151.881C291.097 150.28 292.422 148.342 293.362 146.18L293.902 144.931C295.065 142.238 296.726 139.834 298.78 137.869C300.834 135.904 303.238 134.421 305.841 133.512C308.445 132.603 311.192 132.287 313.913 132.584C316.633 132.881 319.269 133.785 321.654 135.239L332.614 141.884C332.811 141.998 332.984 142.154 333.123 142.343C333.263 142.533 333.365 142.751 333.423 142.985C336.488 154.47 337.742 166.438 337.133 178.379C336.783 185.14 335.858 191.851 334.367 198.425C332.399 207.044 329.466 215.368 325.634 223.208C325.429 223.628 325.081 223.943 324.665 224.087C324.249 224.231 323.798 224.192 323.408 223.979L305.738 214.543C302.805 212.995 299.535 212.361 296.292 212.711C293.048 213.061 289.957 214.381 287.36 216.526L250.165 247.697C246.764 250.553 242.59 252.103 238.295 252.103ZM262.271 156.129C259.079 156.133 255.955 157.139 253.276 159.028C250.596 160.917 248.474 163.607 247.164 166.777L223.559 223.685C221.793 227.926 221.646 232.757 223.151 237.115C224.656 241.473 227.69 245.002 231.584 246.926C232.463 247.361 233.378 247.705 234.316 247.954C236.672 248.589 239.129 248.639 241.505 248.098C243.881 247.558 246.115 246.442 248.04 244.833L285.202 213.662C288.292 211.089 291.979 209.503 295.85 209.081C299.721 208.66 303.623 209.42 307.12 211.276L323.307 219.94C326.652 212.834 329.232 205.331 330.995 197.581C334.959 180.212 334.715 162.02 330.287 144.784L319.935 138.506C317.955 137.301 315.768 136.551 313.511 136.305C311.253 136.059 308.974 136.321 306.813 137.076C304.653 137.83 302.659 139.06 300.954 140.689C299.249 142.319 297.87 144.312 296.903 146.547L296.363 147.795C295.237 150.4 293.647 152.735 291.684 154.664C289.721 156.593 287.425 158.078 284.93 159.031C282.435 159.985 279.79 160.388 277.151 160.217C274.511 160.047 271.929 159.306 269.555 158.039C268.49 157.496 267.384 157.054 266.25 156.717C264.958 156.306 263.617 156.108 262.271 156.129Z" fill="#383A48"/>
<path d="M179.888 89.2348C166.399 100.543 155.892 115.53 149.432 132.68C142.972 149.829 140.787 168.533 143.098 186.897C151.158 171.256 179.382 165.933 188.791 146.914C198.199 127.896 179.248 104.288 195.4 78.5874C189.938 81.6057 184.745 85.1701 179.888 89.2348Z" fill="#F6E049"/>
<path d="M143.098 188.769C142.996 188.775 142.893 188.763 142.795 188.733C142.45 188.661 142.135 188.473 141.894 188.197C141.652 187.92 141.495 187.569 141.446 187.191C139.088 168.503 141.308 149.468 147.881 132.014C154.455 114.561 165.147 99.3091 178.877 87.803C183.797 83.6649 189.07 80.0503 194.625 77.0088C194.96 76.8316 195.339 76.7788 195.704 76.8583C196.07 76.9379 196.401 77.1455 196.648 77.4493C196.897 77.7527 197.045 78.138 197.069 78.5439C197.094 78.9497 196.993 79.3528 196.783 79.689C188.116 93.4938 190.005 106.564 191.826 119.231C193.309 129.401 194.692 138.984 190.274 147.869C185.081 158.369 174.763 164.648 164.781 170.742C156.216 175.956 148.156 180.912 144.582 187.852C144.421 188.123 144.201 188.348 143.943 188.508C143.685 188.668 143.395 188.758 143.098 188.769ZM190.848 83.3972C187.399 85.6109 184.077 88.0508 180.9 90.7035C168.226 101.325 158.224 115.262 151.822 131.219C145.419 147.176 142.824 164.636 144.278 181.977C148.797 176.286 155.811 172.027 163.129 167.548C172.706 161.71 182.586 155.652 187.307 146.107C191.151 138.323 189.87 129.291 188.487 119.782C186.869 108.657 185.081 96.3209 190.848 83.3972Z" fill="#383A48"/>
<path d="M317.573 233.268C318.504 233.268 319.259 232.446 319.259 231.432C319.259 230.419 318.504 229.597 317.573 229.597C316.642 229.597 315.887 230.419 315.887 231.432C315.887 232.446 316.642 233.268 317.573 233.268Z" fill="#383A48"/>
<path d="M309.243 233.268C310.174 233.268 310.929 232.446 310.929 231.432C310.929 230.419 310.174 229.597 309.243 229.597C308.312 229.597 307.557 230.419 307.557 231.432C307.557 232.446 308.312 233.268 309.243 233.268Z" fill="#383A48"/>
<path d="M309.243 242.3C310.174 242.3 310.929 241.478 310.929 240.464C310.929 239.45 310.174 238.628 309.243 238.628C308.312 238.628 307.557 239.45 307.557 240.464C307.557 241.478 308.312 242.3 309.243 242.3Z" fill="#383A48"/>
<path d="M300.915 242.3C301.846 242.3 302.601 241.478 302.601 240.464C302.601 239.45 301.846 238.628 300.915 238.628C299.983 238.628 299.229 239.45 299.229 240.464C299.229 241.478 299.983 242.3 300.915 242.3Z" fill="#383A48"/>
<path d="M300.915 251.369C301.846 251.369 302.601 250.547 302.601 249.533C302.601 248.519 301.846 247.697 300.915 247.697C299.983 247.697 299.229 248.519 299.229 249.533C299.229 250.547 299.983 251.369 300.915 251.369Z" fill="#383A48"/>
<path d="M292.618 242.3C293.549 242.3 294.304 241.478 294.304 240.464C294.304 239.45 293.549 238.628 292.618 238.628C291.687 238.628 290.932 239.45 290.932 240.464C290.932 241.478 291.687 242.3 292.618 242.3Z" fill="#383A48"/>
<path d="M292.618 251.369C293.549 251.369 294.304 250.547 294.304 249.533C294.304 248.519 293.549 247.697 292.618 247.697C291.687 247.697 290.932 248.519 290.932 249.533C290.932 250.547 291.687 251.369 292.618 251.369Z" fill="#383A48"/>
<path d="M292.618 260.437C293.549 260.437 294.304 259.615 294.304 258.601C294.304 257.588 293.549 256.766 292.618 256.766C291.687 256.766 290.932 257.588 290.932 258.601C290.932 259.615 291.687 260.437 292.618 260.437Z" fill="#383A48"/>
<path d="M284.29 242.3C285.221 242.3 285.976 241.478 285.976 240.464C285.976 239.45 285.221 238.628 284.29 238.628C283.358 238.628 282.604 239.45 282.604 240.464C282.604 241.478 283.358 242.3 284.29 242.3Z" fill="#383A48"/>
<path d="M284.29 251.369C285.221 251.369 285.976 250.547 285.976 249.533C285.976 248.519 285.221 247.697 284.29 247.697C283.358 247.697 282.604 248.519 282.604 249.533C282.604 250.547 283.358 251.369 284.29 251.369Z" fill="#383A48"/>
<path d="M284.29 260.437C285.221 260.437 285.976 259.615 285.976 258.601C285.976 257.588 285.221 256.766 284.29 256.766C283.358 256.766 282.604 257.588 282.604 258.601C282.604 259.615 283.358 260.437 284.29 260.437Z" fill="#383A48"/>
<path d="M275.961 242.3C276.893 242.3 277.648 241.478 277.648 240.464C277.648 239.45 276.893 238.628 275.961 238.628C275.03 238.628 274.275 239.45 274.275 240.464C274.275 241.478 275.03 242.3 275.961 242.3Z" fill="#383A48"/>
<path d="M275.961 251.369C276.893 251.369 277.648 250.547 277.648 249.533C277.648 248.519 276.893 247.697 275.961 247.697C275.03 247.697 274.275 248.519 274.275 249.533C274.275 250.547 275.03 251.369 275.961 251.369Z" fill="#383A48"/>
<path d="M275.961 260.437C276.893 260.437 277.648 259.615 277.648 258.601C277.648 257.588 276.893 256.766 275.961 256.766C275.03 256.766 274.275 257.588 274.275 258.601C274.275 259.615 275.03 260.437 275.961 260.437Z" fill="#383A48"/>
<path d="M275.961 269.469C276.893 269.469 277.648 268.647 277.648 267.634C277.648 266.62 276.893 265.798 275.961 265.798C275.03 265.798 274.275 266.62 274.275 267.634C274.275 268.647 275.03 269.469 275.961 269.469Z" fill="#383A48"/>
<path d="M267.665 242.3C268.596 242.3 269.351 241.478 269.351 240.464C269.351 239.45 268.596 238.628 267.665 238.628C266.733 238.628 265.979 239.45 265.979 240.464C265.979 241.478 266.733 242.3 267.665 242.3Z" fill="#383A48"/>
<path d="M267.665 251.369C268.596 251.369 269.351 250.547 269.351 249.533C269.351 248.519 268.596 247.697 267.665 247.697C266.733 247.697 265.979 248.519 265.979 249.533C265.979 250.547 266.733 251.369 267.665 251.369Z" fill="#383A48"/>
<path d="M267.665 260.437C268.596 260.437 269.351 259.615 269.351 258.601C269.351 257.588 268.596 256.766 267.665 256.766C266.733 256.766 265.979 257.588 265.979 258.601C265.979 259.615 266.733 260.437 267.665 260.437Z" fill="#383A48"/>
<path d="M267.665 269.469C268.596 269.469 269.351 268.647 269.351 267.634C269.351 266.62 268.596 265.798 267.665 265.798C266.733 265.798 265.979 266.62 265.979 267.634C265.979 268.647 266.733 269.469 267.665 269.469Z" fill="#383A48"/>
<path d="M259.336 242.3C260.268 242.3 261.023 241.478 261.023 240.464C261.023 239.45 260.268 238.628 259.336 238.628C258.405 238.628 257.65 239.45 257.65 240.464C257.65 241.478 258.405 242.3 259.336 242.3Z" fill="#383A48"/>
<path d="M259.336 251.369C260.268 251.369 261.023 250.547 261.023 249.533C261.023 248.519 260.268 247.697 259.336 247.697C258.405 247.697 257.65 248.519 257.65 249.533C257.65 250.547 258.405 251.369 259.336 251.369Z" fill="#383A48"/>
<path d="M259.336 260.437C260.268 260.437 261.023 259.615 261.023 258.601C261.023 257.588 260.268 256.766 259.336 256.766C258.405 256.766 257.65 257.588 257.65 258.601C257.65 259.615 258.405 260.437 259.336 260.437Z" fill="#383A48"/>
<path d="M259.336 269.469C260.268 269.469 261.023 268.647 261.023 267.634C261.023 266.62 260.268 265.798 259.336 265.798C258.405 265.798 257.65 266.62 257.65 267.634C257.65 268.647 258.405 269.469 259.336 269.469Z" fill="#383A48"/>
<path d="M251.006 242.3C251.938 242.3 252.692 241.478 252.692 240.464C252.692 239.45 251.938 238.628 251.006 238.628C250.075 238.628 249.32 239.45 249.32 240.464C249.32 241.478 250.075 242.3 251.006 242.3Z" fill="#383A48"/>
<path d="M251.006 251.369C251.938 251.369 252.692 250.547 252.692 249.533C252.692 248.519 251.938 247.697 251.006 247.697C250.075 247.697 249.32 248.519 249.32 249.533C249.32 250.547 250.075 251.369 251.006 251.369Z" fill="#383A48"/>
<path d="M251.006 260.437C251.938 260.437 252.692 259.615 252.692 258.601C252.692 257.588 251.938 256.766 251.006 256.766C250.075 256.766 249.32 257.588 249.32 258.601C249.32 259.615 250.075 260.437 251.006 260.437Z" fill="#383A48"/>
<path d="M251.006 269.469C251.938 269.469 252.692 268.647 252.692 267.634C252.692 266.62 251.938 265.798 251.006 265.798C250.075 265.798 249.32 266.62 249.32 267.634C249.32 268.647 250.075 269.469 251.006 269.469Z" fill="#383A48"/>
<path d="M242.711 233.268C243.643 233.268 244.398 232.446 244.398 231.432C244.398 230.419 243.643 229.597 242.711 229.597C241.78 229.597 241.025 230.419 241.025 231.432C241.025 232.446 241.78 233.268 242.711 233.268Z" fill="#383A48"/>
<path d="M242.711 242.3C243.643 242.3 244.398 241.478 244.398 240.464C244.398 239.45 243.643 238.628 242.711 238.628C241.78 238.628 241.025 239.45 241.025 240.464C241.025 241.478 241.78 242.3 242.711 242.3Z" fill="#383A48"/>
<path d="M242.711 251.369C243.643 251.369 244.398 250.547 244.398 249.533C244.398 248.519 243.643 247.697 242.711 247.697C241.78 247.697 241.025 248.519 241.025 249.533C241.025 250.547 241.78 251.369 242.711 251.369Z" fill="#383A48"/>
<path d="M242.711 260.437C243.643 260.437 244.398 259.615 244.398 258.601C244.398 257.588 243.643 256.766 242.711 256.766C241.78 256.766 241.025 257.588 241.025 258.601C241.025 259.615 241.78 260.437 242.711 260.437Z" fill="#383A48"/>
<path d="M242.711 269.469C243.643 269.469 244.398 268.647 244.398 267.634C244.398 266.62 243.643 265.798 242.711 265.798C241.78 265.798 241.025 266.62 241.025 267.634C241.025 268.647 241.78 269.469 242.711 269.469Z" fill="#383A48"/>
<path d="M242.711 278.538C243.643 278.538 244.398 277.716 244.398 276.702C244.398 275.688 243.643 274.866 242.711 274.866C241.78 274.866 241.025 275.688 241.025 276.702C241.025 277.716 241.78 278.538 242.711 278.538Z" fill="#383A48"/>
<path d="M234.381 233.268C235.313 233.268 236.067 232.446 236.067 231.432C236.067 230.419 235.313 229.597 234.381 229.597C233.45 229.597 232.695 230.419 232.695 231.432C232.695 232.446 233.45 233.268 234.381 233.268Z" fill="#383A48"/>
<path d="M234.381 242.3C235.313 242.3 236.067 241.478 236.067 240.464C236.067 239.45 235.313 238.628 234.381 238.628C233.45 238.628 232.695 239.45 232.695 240.464C232.695 241.478 233.45 242.3 234.381 242.3Z" fill="#383A48"/>
<path d="M234.381 251.369C235.313 251.369 236.067 250.547 236.067 249.533C236.067 248.519 235.313 247.697 234.381 247.697C233.45 247.697 232.695 248.519 232.695 249.533C232.695 250.547 233.45 251.369 234.381 251.369Z" fill="#383A48"/>
<path d="M234.381 260.437C235.313 260.437 236.067 259.615 236.067 258.601C236.067 257.588 235.313 256.766 234.381 256.766C233.45 256.766 232.695 257.588 232.695 258.601C232.695 259.615 233.45 260.437 234.381 260.437Z" fill="#383A48"/>
<path d="M234.381 269.469C235.313 269.469 236.067 268.647 236.067 267.634C236.067 266.62 235.313 265.798 234.381 265.798C233.45 265.798 232.695 266.62 232.695 267.634C232.695 268.647 233.45 269.469 234.381 269.469Z" fill="#383A48"/>
<path d="M234.381 278.538C235.313 278.538 236.067 277.716 236.067 276.702C236.067 275.688 235.313 274.866 234.381 274.866C233.45 274.866 232.695 275.688 232.695 276.702C232.695 277.716 233.45 278.538 234.381 278.538Z" fill="#383A48"/>
<path d="M226.053 233.268C226.984 233.268 227.739 232.446 227.739 231.432C227.739 230.419 226.984 229.597 226.053 229.597C225.122 229.597 224.367 230.419 224.367 231.432C224.367 232.446 225.122 233.268 226.053 233.268Z" fill="#383A48"/>
<path d="M226.053 242.3C226.984 242.3 227.739 241.478 227.739 240.464C227.739 239.45 226.984 238.628 226.053 238.628C225.122 238.628 224.367 239.45 224.367 240.464C224.367 241.478 225.122 242.3 226.053 242.3Z" fill="#383A48"/>
<path d="M226.053 251.369C226.984 251.369 227.739 250.547 227.739 249.533C227.739 248.519 226.984 247.697 226.053 247.697C225.122 247.697 224.367 248.519 224.367 249.533C224.367 250.547 225.122 251.369 226.053 251.369Z" fill="#383A48"/>
<path d="M226.053 260.437C226.984 260.437 227.739 259.615 227.739 258.601C227.739 257.588 226.984 256.766 226.053 256.766C225.122 256.766 224.367 257.588 224.367 258.601C224.367 259.615 225.122 260.437 226.053 260.437Z" fill="#383A48"/>
<path d="M226.053 269.469C226.984 269.469 227.739 268.647 227.739 267.634C227.739 266.62 226.984 265.798 226.053 265.798C225.122 265.798 224.367 266.62 224.367 267.634C224.367 268.647 225.122 269.469 226.053 269.469Z" fill="#383A48"/>
<path d="M226.053 278.538C226.984 278.538 227.739 277.716 227.739 276.702C227.739 275.688 226.984 274.866 226.053 274.866C225.122 274.866 224.367 275.688 224.367 276.702C224.367 277.716 225.122 278.538 226.053 278.538Z" fill="#383A48"/>
<path d="M217.756 224.199C218.688 224.199 219.442 223.377 219.442 222.364C219.442 221.35 218.688 220.528 217.756 220.528C216.825 220.528 216.07 221.35 216.07 222.364C216.07 223.377 216.825 224.199 217.756 224.199Z" fill="#383A48"/>
<path d="M217.756 233.268C218.688 233.268 219.442 232.446 219.442 231.432C219.442 230.419 218.688 229.597 217.756 229.597C216.825 229.597 216.07 230.419 216.07 231.432C216.07 232.446 216.825 233.268 217.756 233.268Z" fill="#383A48"/>
<path d="M217.756 242.3C218.688 242.3 219.442 241.478 219.442 240.464C219.442 239.45 218.688 238.628 217.756 238.628C216.825 238.628 216.07 239.45 216.07 240.464C216.07 241.478 216.825 242.3 217.756 242.3Z" fill="#383A48"/>
<path d="M217.756 251.369C218.688 251.369 219.442 250.547 219.442 249.533C219.442 248.519 218.688 247.697 217.756 247.697C216.825 247.697 216.07 248.519 216.07 249.533C216.07 250.547 216.825 251.369 217.756 251.369Z" fill="#383A48"/>
<path d="M217.756 260.437C218.688 260.437 219.442 259.615 219.442 258.601C219.442 257.588 218.688 256.766 217.756 256.766C216.825 256.766 216.07 257.588 216.07 258.601C216.07 259.615 216.825 260.437 217.756 260.437Z" fill="#383A48"/>
<path d="M217.756 269.469C218.688 269.469 219.442 268.647 219.442 267.634C219.442 266.62 218.688 265.798 217.756 265.798C216.825 265.798 216.07 266.62 216.07 267.634C216.07 268.647 216.825 269.469 217.756 269.469Z" fill="#383A48"/>
<path d="M209.428 215.131C210.359 215.131 211.114 214.309 211.114 213.295C211.114 212.281 210.359 211.459 209.428 211.459C208.497 211.459 207.742 212.281 207.742 213.295C207.742 214.309 208.497 215.131 209.428 215.131Z" fill="#383A48"/>
<path d="M209.428 224.199C210.359 224.199 211.114 223.377 211.114 222.364C211.114 221.35 210.359 220.528 209.428 220.528C208.497 220.528 207.742 221.35 207.742 222.364C207.742 223.377 208.497 224.199 209.428 224.199Z" fill="#383A48"/>
<path d="M209.428 233.268C210.359 233.268 211.114 232.446 211.114 231.432C211.114 230.419 210.359 229.597 209.428 229.597C208.497 229.597 207.742 230.419 207.742 231.432C207.742 232.446 208.497 233.268 209.428 233.268Z" fill="#383A48"/>
<path d="M209.428 242.3C210.359 242.3 211.114 241.478 211.114 240.464C211.114 239.45 210.359 238.628 209.428 238.628C208.497 238.628 207.742 239.45 207.742 240.464C207.742 241.478 208.497 242.3 209.428 242.3Z" fill="#383A48"/>
<path d="M209.428 251.369C210.359 251.369 211.114 250.547 211.114 249.533C211.114 248.519 210.359 247.697 209.428 247.697C208.497 247.697 207.742 248.519 207.742 249.533C207.742 250.547 208.497 251.369 209.428 251.369Z" fill="#383A48"/>
<path d="M209.428 260.437C210.359 260.437 211.114 259.615 211.114 258.601C211.114 257.588 210.359 256.766 209.428 256.766C208.497 256.766 207.742 257.588 207.742 258.601C207.742 259.615 208.497 260.437 209.428 260.437Z" fill="#383A48"/>
<path d="M209.428 269.469C210.359 269.469 211.114 268.647 211.114 267.634C211.114 266.62 210.359 265.798 209.428 265.798C208.497 265.798 207.742 266.62 207.742 267.634C207.742 268.647 208.497 269.469 209.428 269.469Z" fill="#383A48"/>
<path d="M201.098 206.099C202.029 206.099 202.784 205.277 202.784 204.263C202.784 203.249 202.029 202.427 201.098 202.427C200.167 202.427 199.412 203.249 199.412 204.263C199.412 205.277 200.167 206.099 201.098 206.099Z" fill="#383A48"/>
<path d="M201.098 215.131C202.029 215.131 202.784 214.309 202.784 213.295C202.784 212.281 202.029 211.459 201.098 211.459C200.167 211.459 199.412 212.281 199.412 213.295C199.412 214.309 200.167 215.131 201.098 215.131Z" fill="#383A48"/>
<path d="M201.098 224.199C202.029 224.199 202.784 223.377 202.784 222.364C202.784 221.35 202.029 220.528 201.098 220.528C200.167 220.528 199.412 221.35 199.412 222.364C199.412 223.377 200.167 224.199 201.098 224.199Z" fill="#383A48"/>
<path d="M201.098 233.268C202.029 233.268 202.784 232.446 202.784 231.432C202.784 230.419 202.029 229.597 201.098 229.597C200.167 229.597 199.412 230.419 199.412 231.432C199.412 232.446 200.167 233.268 201.098 233.268Z" fill="#383A48"/>
<path d="M201.098 242.3C202.029 242.3 202.784 241.478 202.784 240.464C202.784 239.45 202.029 238.628 201.098 238.628C200.167 238.628 199.412 239.45 199.412 240.464C199.412 241.478 200.167 242.3 201.098 242.3Z" fill="#383A48"/>
<path d="M201.098 251.369C202.029 251.369 202.784 250.547 202.784 249.533C202.784 248.519 202.029 247.697 201.098 247.697C200.167 247.697 199.412 248.519 199.412 249.533C199.412 250.547 200.167 251.369 201.098 251.369Z" fill="#383A48"/>
<path d="M201.098 260.437C202.029 260.437 202.784 259.615 202.784 258.601C202.784 257.588 202.029 256.766 201.098 256.766C200.167 256.766 199.412 257.588 199.412 258.601C199.412 259.615 200.167 260.437 201.098 260.437Z" fill="#383A48"/>
<path d="M201.098 269.469C202.029 269.469 202.784 268.647 202.784 267.634C202.784 266.62 202.029 265.798 201.098 265.798C200.167 265.798 199.412 266.62 199.412 267.634C199.412 268.647 200.167 269.469 201.098 269.469Z" fill="#383A48"/>
<path d="M192.803 197.03C193.734 197.03 194.489 196.209 194.489 195.195C194.489 194.181 193.734 193.359 192.803 193.359C191.872 193.359 191.117 194.181 191.117 195.195C191.117 196.209 191.872 197.03 192.803 197.03Z" fill="#383A48"/>
<path d="M192.803 206.099C193.734 206.099 194.489 205.277 194.489 204.263C194.489 203.249 193.734 202.427 192.803 202.427C191.872 202.427 191.117 203.249 191.117 204.263C191.117 205.277 191.872 206.099 192.803 206.099Z" fill="#383A48"/>
<path d="M192.803 215.131C193.734 215.131 194.489 214.309 194.489 213.295C194.489 212.281 193.734 211.459 192.803 211.459C191.872 211.459 191.117 212.281 191.117 213.295C191.117 214.309 191.872 215.131 192.803 215.131Z" fill="#383A48"/>
<path d="M192.803 224.199C193.734 224.199 194.489 223.377 194.489 222.364C194.489 221.35 193.734 220.528 192.803 220.528C191.872 220.528 191.117 221.35 191.117 222.364C191.117 223.377 191.872 224.199 192.803 224.199Z" fill="#383A48"/>
<path d="M192.803 233.268C193.734 233.268 194.489 232.446 194.489 231.432C194.489 230.419 193.734 229.597 192.803 229.597C191.872 229.597 191.117 230.419 191.117 231.432C191.117 232.446 191.872 233.268 192.803 233.268Z" fill="#383A48"/>
<path d="M192.803 242.3C193.734 242.3 194.489 241.478 194.489 240.464C194.489 239.45 193.734 238.628 192.803 238.628C191.872 238.628 191.117 239.45 191.117 240.464C191.117 241.478 191.872 242.3 192.803 242.3Z" fill="#383A48"/>
<path d="M192.803 251.369C193.734 251.369 194.489 250.547 194.489 249.533C194.489 248.519 193.734 247.697 192.803 247.697C191.872 247.697 191.117 248.519 191.117 249.533C191.117 250.547 191.872 251.369 192.803 251.369Z" fill="#383A48"/>
<path d="M192.803 260.437C193.734 260.437 194.489 259.615 194.489 258.601C194.489 257.588 193.734 256.766 192.803 256.766C191.872 256.766 191.117 257.588 191.117 258.601C191.117 259.615 191.872 260.437 192.803 260.437Z" fill="#383A48"/>
<path d="M184.473 88.3536C185.404 88.3536 186.159 87.5317 186.159 86.5179C186.159 85.504 185.404 84.6821 184.473 84.6821C183.542 84.6821 182.787 85.504 182.787 86.5179C182.787 87.5317 183.542 88.3536 184.473 88.3536Z" fill="#383A48"/>
<path d="M184.473 178.93C185.404 178.93 186.159 178.108 186.159 177.094C186.159 176.08 185.404 175.258 184.473 175.258C183.542 175.258 182.787 176.08 182.787 177.094C182.787 178.108 183.542 178.93 184.473 178.93Z" fill="#383A48"/>
<path d="M184.473 187.962C185.404 187.962 186.159 187.14 186.159 186.126C186.159 185.112 185.404 184.29 184.473 184.29C183.542 184.29 182.787 185.112 182.787 186.126C182.787 187.14 183.542 187.962 184.473 187.962Z" fill="#383A48"/>
<path d="M184.473 197.03C185.404 197.03 186.159 196.209 186.159 195.195C186.159 194.181 185.404 193.359 184.473 193.359C183.542 193.359 182.787 194.181 182.787 195.195C182.787 196.209 183.542 197.03 184.473 197.03Z" fill="#383A48"/>
<path d="M184.473 206.099C185.404 206.099 186.159 205.277 186.159 204.263C186.159 203.249 185.404 202.427 184.473 202.427C183.542 202.427 182.787 203.249 182.787 204.263C182.787 205.277 183.542 206.099 184.473 206.099Z" fill="#383A48"/>
<path d="M184.473 215.131C185.404 215.131 186.159 214.309 186.159 213.295C186.159 212.281 185.404 211.459 184.473 211.459C183.542 211.459 182.787 212.281 182.787 213.295C182.787 214.309 183.542 215.131 184.473 215.131Z" fill="#383A48"/>
<path d="M184.473 224.199C185.404 224.199 186.159 223.377 186.159 222.364C186.159 221.35 185.404 220.528 184.473 220.528C183.542 220.528 182.787 221.35 182.787 222.364C182.787 223.377 183.542 224.199 184.473 224.199Z" fill="#383A48"/>
<path d="M184.473 233.268C185.404 233.268 186.159 232.446 186.159 231.432C186.159 230.419 185.404 229.597 184.473 229.597C183.542 229.597 182.787 230.419 182.787 231.432C182.787 232.446 183.542 233.268 184.473 233.268Z" fill="#383A48"/>
<path d="M184.473 242.3C185.404 242.3 186.159 241.478 186.159 240.464C186.159 239.45 185.404 238.628 184.473 238.628C183.542 238.628 182.787 239.45 182.787 240.464C182.787 241.478 183.542 242.3 184.473 242.3Z" fill="#383A48"/>
<path d="M184.473 251.369C185.404 251.369 186.159 250.547 186.159 249.533C186.159 248.519 185.404 247.697 184.473 247.697C183.542 247.697 182.787 248.519 182.787 249.533C182.787 250.547 183.542 251.369 184.473 251.369Z" fill="#383A48"/>
<path d="M184.473 260.437C185.404 260.437 186.159 259.615 186.159 258.601C186.159 257.588 185.404 256.766 184.473 256.766C183.542 256.766 182.787 257.588 182.787 258.601C182.787 259.615 183.542 260.437 184.473 260.437Z" fill="#383A48"/>
<path d="M176.145 97.422C177.076 97.422 177.831 96.6001 177.831 95.5862C177.831 94.5724 177.076 93.7505 176.145 93.7505C175.214 93.7505 174.459 94.5724 174.459 95.5862C174.459 96.6001 175.214 97.422 176.145 97.422Z" fill="#383A48"/>
<path d="M176.145 106.454C177.076 106.454 177.831 105.632 177.831 104.618C177.831 103.605 177.076 102.783 176.145 102.783C175.214 102.783 174.459 103.605 174.459 104.618C174.459 105.632 175.214 106.454 176.145 106.454Z" fill="#383A48"/>
<path d="M176.145 115.523C177.076 115.523 177.831 114.701 177.831 113.687C177.831 112.673 177.076 111.851 176.145 111.851C175.214 111.851 174.459 112.673 174.459 113.687C174.459 114.701 175.214 115.523 176.145 115.523Z" fill="#383A48"/>
<path d="M176.145 124.591C177.076 124.591 177.831 123.77 177.831 122.756C177.831 121.742 177.076 120.92 176.145 120.92C175.214 120.92 174.459 121.742 174.459 122.756C174.459 123.77 175.214 124.591 176.145 124.591Z" fill="#383A48"/>
<path d="M176.145 133.623C177.076 133.623 177.831 132.801 177.831 131.787C177.831 130.774 177.076 129.952 176.145 129.952C175.214 129.952 174.459 130.774 174.459 131.787C174.459 132.801 175.214 133.623 176.145 133.623Z" fill="#383A48"/>
<path d="M176.145 142.692C177.076 142.692 177.831 141.87 177.831 140.856C177.831 139.842 177.076 139.021 176.145 139.021C175.214 139.021 174.459 139.842 174.459 140.856C174.459 141.87 175.214 142.692 176.145 142.692Z" fill="#383A48"/>
<path d="M176.145 151.76C177.076 151.76 177.831 150.938 177.831 149.925C177.831 148.911 177.076 148.089 176.145 148.089C175.214 148.089 174.459 148.911 174.459 149.925C174.459 150.938 175.214 151.76 176.145 151.76Z" fill="#383A48"/>
<path d="M176.145 160.793C177.076 160.793 177.831 159.971 177.831 158.957C177.831 157.943 177.076 157.121 176.145 157.121C175.214 157.121 174.459 157.943 174.459 158.957C174.459 159.971 175.214 160.793 176.145 160.793Z" fill="#383A48"/>
<path d="M176.145 169.861C177.076 169.861 177.831 169.039 177.831 168.025C177.831 167.011 177.076 166.189 176.145 166.189C175.214 166.189 174.459 167.011 174.459 168.025C174.459 169.039 175.214 169.861 176.145 169.861Z" fill="#383A48"/>
<path d="M176.145 178.93C177.076 178.93 177.831 178.108 177.831 177.094C177.831 176.08 177.076 175.258 176.145 175.258C175.214 175.258 174.459 176.08 174.459 177.094C174.459 178.108 175.214 178.93 176.145 178.93Z" fill="#383A48"/>
<path d="M176.145 187.962C177.076 187.962 177.831 187.14 177.831 186.126C177.831 185.112 177.076 184.29 176.145 184.29C175.214 184.29 174.459 185.112 174.459 186.126C174.459 187.14 175.214 187.962 176.145 187.962Z" fill="#383A48"/>
<path d="M176.145 197.03C177.076 197.03 177.831 196.209 177.831 195.195C177.831 194.181 177.076 193.359 176.145 193.359C175.214 193.359 174.459 194.181 174.459 195.195C174.459 196.209 175.214 197.03 176.145 197.03Z" fill="#383A48"/>
<path d="M176.145 206.099C177.076 206.099 177.831 205.277 177.831 204.263C177.831 203.249 177.076 202.427 176.145 202.427C175.214 202.427 174.459 203.249 174.459 204.263C174.459 205.277 175.214 206.099 176.145 206.099Z" fill="#383A48"/>
<path d="M176.145 215.131C177.076 215.131 177.831 214.309 177.831 213.295C177.831 212.281 177.076 211.459 176.145 211.459C175.214 211.459 174.459 212.281 174.459 213.295C174.459 214.309 175.214 215.131 176.145 215.131Z" fill="#383A48"/>
<path d="M176.145 224.199C177.076 224.199 177.831 223.377 177.831 222.364C177.831 221.35 177.076 220.528 176.145 220.528C175.214 220.528 174.459 221.35 174.459 222.364C174.459 223.377 175.214 224.199 176.145 224.199Z" fill="#383A48"/>
<path d="M176.145 233.268C177.076 233.268 177.831 232.446 177.831 231.432C177.831 230.419 177.076 229.597 176.145 229.597C175.214 229.597 174.459 230.419 174.459 231.432C174.459 232.446 175.214 233.268 176.145 233.268Z" fill="#383A48"/>
<path d="M176.145 242.3C177.076 242.3 177.831 241.478 177.831 240.464C177.831 239.45 177.076 238.628 176.145 238.628C175.214 238.628 174.459 239.45 174.459 240.464C174.459 241.478 175.214 242.3 176.145 242.3Z" fill="#383A48"/>
<path d="M176.145 251.369C177.076 251.369 177.831 250.547 177.831 249.533C177.831 248.519 177.076 247.697 176.145 247.697C175.214 247.697 174.459 248.519 174.459 249.533C174.459 250.547 175.214 251.369 176.145 251.369Z" fill="#383A48"/>
<path d="M167.85 106.454C168.781 106.454 169.536 105.632 169.536 104.618C169.536 103.605 168.781 102.783 167.85 102.783C166.919 102.783 166.164 103.605 166.164 104.618C166.164 105.632 166.919 106.454 167.85 106.454Z" fill="#383A48"/>
<path d="M167.85 115.523C168.781 115.523 169.536 114.701 169.536 113.687C169.536 112.673 168.781 111.851 167.85 111.851C166.919 111.851 166.164 112.673 166.164 113.687C166.164 114.701 166.919 115.523 167.85 115.523Z" fill="#383A48"/>
<path d="M167.85 124.591C168.781 124.591 169.536 123.77 169.536 122.756C169.536 121.742 168.781 120.92 167.85 120.92C166.919 120.92 166.164 121.742 166.164 122.756C166.164 123.77 166.919 124.591 167.85 124.591Z" fill="#383A48"/>
<path d="M167.85 133.623C168.781 133.623 169.536 132.801 169.536 131.787C169.536 130.774 168.781 129.952 167.85 129.952C166.919 129.952 166.164 130.774 166.164 131.787C166.164 132.801 166.919 133.623 167.85 133.623Z" fill="#383A48"/>
<path d="M167.85 142.692C168.781 142.692 169.536 141.87 169.536 140.856C169.536 139.842 168.781 139.021 167.85 139.021C166.919 139.021 166.164 139.842 166.164 140.856C166.164 141.87 166.919 142.692 167.85 142.692Z" fill="#383A48"/>
<path d="M167.85 151.76C168.781 151.76 169.536 150.938 169.536 149.925C169.536 148.911 168.781 148.089 167.85 148.089C166.919 148.089 166.164 148.911 166.164 149.925C166.164 150.938 166.919 151.76 167.85 151.76Z" fill="#383A48"/>
<path d="M167.85 160.793C168.781 160.793 169.536 159.971 169.536 158.957C169.536 157.943 168.781 157.121 167.85 157.121C166.919 157.121 166.164 157.943 166.164 158.957C166.164 159.971 166.919 160.793 167.85 160.793Z" fill="#383A48"/>
<path d="M167.85 169.861C168.781 169.861 169.536 169.039 169.536 168.025C169.536 167.011 168.781 166.189 167.85 166.189C166.919 166.189 166.164 167.011 166.164 168.025C166.164 169.039 166.919 169.861 167.85 169.861Z" fill="#383A48"/>
<path d="M167.85 178.93C168.781 178.93 169.536 178.108 169.536 177.094C169.536 176.08 168.781 175.258 167.85 175.258C166.919 175.258 166.164 176.08 166.164 177.094C166.164 178.108 166.919 178.93 167.85 178.93Z" fill="#383A48"/>
<path d="M167.85 187.962C168.781 187.962 169.536 187.14 169.536 186.126C169.536 185.112 168.781 184.29 167.85 184.29C166.919 184.29 166.164 185.112 166.164 186.126C166.164 187.14 166.919 187.962 167.85 187.962Z" fill="#383A48"/>
<path d="M167.85 197.03C168.781 197.03 169.536 196.209 169.536 195.195C169.536 194.181 168.781 193.359 167.85 193.359C166.919 193.359 166.164 194.181 166.164 195.195C166.164 196.209 166.919 197.03 167.85 197.03Z" fill="#383A48"/>
<path d="M167.85 206.099C168.781 206.099 169.536 205.277 169.536 204.263C169.536 203.249 168.781 202.427 167.85 202.427C166.919 202.427 166.164 203.249 166.164 204.263C166.164 205.277 166.919 206.099 167.85 206.099Z" fill="#383A48"/>
<path d="M167.85 215.131C168.781 215.131 169.536 214.309 169.536 213.295C169.536 212.281 168.781 211.459 167.85 211.459C166.919 211.459 166.164 212.281 166.164 213.295C166.164 214.309 166.919 215.131 167.85 215.131Z" fill="#383A48"/>
<path d="M167.85 224.199C168.781 224.199 169.536 223.377 169.536 222.364C169.536 221.35 168.781 220.528 167.85 220.528C166.919 220.528 166.164 221.35 166.164 222.364C166.164 223.377 166.919 224.199 167.85 224.199Z" fill="#383A48"/>
<path d="M167.85 233.268C168.781 233.268 169.536 232.446 169.536 231.432C169.536 230.419 168.781 229.597 167.85 229.597C166.919 229.597 166.164 230.419 166.164 231.432C166.164 232.446 166.919 233.268 167.85 233.268Z" fill="#383A48"/>
<path d="M167.85 242.3C168.781 242.3 169.536 241.478 169.536 240.464C169.536 239.45 168.781 238.628 167.85 238.628C166.919 238.628 166.164 239.45 166.164 240.464C166.164 241.478 166.919 242.3 167.85 242.3Z" fill="#383A48"/>
<path d="M159.52 115.523C160.451 115.523 161.206 114.701 161.206 113.687C161.206 112.673 160.451 111.851 159.52 111.851C158.589 111.851 157.834 112.673 157.834 113.687C157.834 114.701 158.589 115.523 159.52 115.523Z" fill="#383A48"/>
<path d="M159.52 124.591C160.451 124.591 161.206 123.77 161.206 122.756C161.206 121.742 160.451 120.92 159.52 120.92C158.589 120.92 157.834 121.742 157.834 122.756C157.834 123.77 158.589 124.591 159.52 124.591Z" fill="#383A48"/>
<path d="M159.52 133.623C160.451 133.623 161.206 132.801 161.206 131.787C161.206 130.774 160.451 129.952 159.52 129.952C158.589 129.952 157.834 130.774 157.834 131.787C157.834 132.801 158.589 133.623 159.52 133.623Z" fill="#383A48"/>
<path d="M159.52 142.692C160.451 142.692 161.206 141.87 161.206 140.856C161.206 139.842 160.451 139.021 159.52 139.021C158.589 139.021 157.834 139.842 157.834 140.856C157.834 141.87 158.589 142.692 159.52 142.692Z" fill="#383A48"/>
<path d="M159.52 151.76C160.451 151.76 161.206 150.938 161.206 149.925C161.206 148.911 160.451 148.089 159.52 148.089C158.589 148.089 157.834 148.911 157.834 149.925C157.834 150.938 158.589 151.76 159.52 151.76Z" fill="#383A48"/>
<path d="M159.52 160.793C160.451 160.793 161.206 159.971 161.206 158.957C161.206 157.943 160.451 157.121 159.52 157.121C158.589 157.121 157.834 157.943 157.834 158.957C157.834 159.971 158.589 160.793 159.52 160.793Z" fill="#383A48"/>
<path d="M159.52 169.861C160.451 169.861 161.206 169.039 161.206 168.025C161.206 167.011 160.451 166.189 159.52 166.189C158.589 166.189 157.834 167.011 157.834 168.025C157.834 169.039 158.589 169.861 159.52 169.861Z" fill="#383A48"/>
<path d="M159.52 178.93C160.451 178.93 161.206 178.108 161.206 177.094C161.206 176.08 160.451 175.258 159.52 175.258C158.589 175.258 157.834 176.08 157.834 177.094C157.834 178.108 158.589 178.93 159.52 178.93Z" fill="#383A48"/>
<path d="M159.52 187.962C160.451 187.962 161.206 187.14 161.206 186.126C161.206 185.112 160.451 184.29 159.52 184.29C158.589 184.29 157.834 185.112 157.834 186.126C157.834 187.14 158.589 187.962 159.52 187.962Z" fill="#383A48"/>
<path d="M159.52 197.03C160.451 197.03 161.206 196.209 161.206 195.195C161.206 194.181 160.451 193.359 159.52 193.359C158.589 193.359 157.834 194.181 157.834 195.195C157.834 196.209 158.589 197.03 159.52 197.03Z" fill="#383A48"/>
<path d="M159.52 206.099C160.451 206.099 161.206 205.277 161.206 204.263C161.206 203.249 160.451 202.427 159.52 202.427C158.589 202.427 157.834 203.249 157.834 204.263C157.834 205.277 158.589 206.099 159.52 206.099Z" fill="#383A48"/>
<path d="M159.52 215.131C160.451 215.131 161.206 214.309 161.206 213.295C161.206 212.281 160.451 211.459 159.52 211.459C158.589 211.459 157.834 212.281 157.834 213.295C157.834 214.309 158.589 215.131 159.52 215.131Z" fill="#383A48"/>
<path d="M159.52 224.199C160.451 224.199 161.206 223.377 161.206 222.364C161.206 221.35 160.451 220.528 159.52 220.528C158.589 220.528 157.834 221.35 157.834 222.364C157.834 223.377 158.589 224.199 159.52 224.199Z" fill="#383A48"/>
<path d="M159.52 233.268C160.451 233.268 161.206 232.446 161.206 231.432C161.206 230.419 160.451 229.597 159.52 229.597C158.589 229.597 157.834 230.419 157.834 231.432C157.834 232.446 158.589 233.268 159.52 233.268Z" fill="#383A48"/>
<path d="M151.19 133.623C152.121 133.623 152.876 132.801 152.876 131.787C152.876 130.774 152.121 129.952 151.19 129.952C150.259 129.952 149.504 130.774 149.504 131.787C149.504 132.801 150.259 133.623 151.19 133.623Z" fill="#383A48"/>
<path d="M151.19 142.692C152.121 142.692 152.876 141.87 152.876 140.856C152.876 139.842 152.121 139.021 151.19 139.021C150.259 139.021 149.504 139.842 149.504 140.856C149.504 141.87 150.259 142.692 151.19 142.692Z" fill="#383A48"/>
<path d="M151.19 151.76C152.121 151.76 152.876 150.938 152.876 149.925C152.876 148.911 152.121 148.089 151.19 148.089C150.259 148.089 149.504 148.911 149.504 149.925C149.504 150.938 150.259 151.76 151.19 151.76Z" fill="#383A48"/>
<path d="M151.19 160.793C152.121 160.793 152.876 159.971 152.876 158.957C152.876 157.943 152.121 157.121 151.19 157.121C150.259 157.121 149.504 157.943 149.504 158.957C149.504 159.971 150.259 160.793 151.19 160.793Z" fill="#383A48"/>
<path d="M151.19 169.861C152.121 169.861 152.876 169.039 152.876 168.025C152.876 167.011 152.121 166.189 151.19 166.189C150.259 166.189 149.504 167.011 149.504 168.025C149.504 169.039 150.259 169.861 151.19 169.861Z" fill="#383A48"/>
<path d="M151.19 178.93C152.121 178.93 152.876 178.108 152.876 177.094C152.876 176.08 152.121 175.258 151.19 175.258C150.259 175.258 149.504 176.08 149.504 177.094C149.504 178.108 150.259 178.93 151.19 178.93Z" fill="#383A48"/>
<path d="M151.19 187.962C152.121 187.962 152.876 187.14 152.876 186.126C152.876 185.112 152.121 184.29 151.19 184.29C150.259 184.29 149.504 185.112 149.504 186.126C149.504 187.14 150.259 187.962 151.19 187.962Z" fill="#383A48"/>
<path d="M151.19 197.03C152.121 197.03 152.876 196.209 152.876 195.195C152.876 194.181 152.121 193.359 151.19 193.359C150.259 193.359 149.504 194.181 149.504 195.195C149.504 196.209 150.259 197.03 151.19 197.03Z" fill="#383A48"/>
<path d="M151.19 206.099C152.121 206.099 152.876 205.277 152.876 204.263C152.876 203.249 152.121 202.427 151.19 202.427C150.259 202.427 149.504 203.249 149.504 204.263C149.504 205.277 150.259 206.099 151.19 206.099Z" fill="#383A48"/>
<path d="M151.19 215.131C152.121 215.131 152.876 214.309 152.876 213.295C152.876 212.281 152.121 211.459 151.19 211.459C150.259 211.459 149.504 212.281 149.504 213.295C149.504 214.309 150.259 215.131 151.19 215.131Z" fill="#383A48"/>
<path d="M142.897 160.793C143.828 160.793 144.583 159.971 144.583 158.957C144.583 157.943 143.828 157.121 142.897 157.121C141.966 157.121 141.211 157.943 141.211 158.957C141.211 159.971 141.966 160.793 142.897 160.793Z" fill="#383A48"/>
<path d="M142.897 169.861C143.828 169.861 144.583 169.039 144.583 168.025C144.583 167.011 143.828 166.189 142.897 166.189C141.966 166.189 141.211 167.011 141.211 168.025C141.211 169.039 141.966 169.861 142.897 169.861Z" fill="#383A48"/>
<path d="M142.897 178.93C143.828 178.93 144.583 178.108 144.583 177.094C144.583 176.08 143.828 175.258 142.897 175.258C141.966 175.258 141.211 176.08 141.211 177.094C141.211 178.108 141.966 178.93 142.897 178.93Z" fill="#383A48"/>
<path d="M142.897 187.962C143.828 187.962 144.583 187.14 144.583 186.126C144.583 185.112 143.828 184.29 142.897 184.29C141.966 184.29 141.211 185.112 141.211 186.126C141.211 187.14 141.966 187.962 142.897 187.962Z" fill="#383A48"/>
<path d="M145.493 296.381C139.052 296.381 133.994 294.509 130.453 290.654C121.281 280.667 124.214 258.932 138.782 229.487C153.013 200.665 176.685 167.548 205.449 136.23C234.214 104.912 264.63 79.1383 291.102 63.6446C318.146 47.8204 338.109 44.5894 347.282 54.5759C358.309 66.5818 351.834 95.1828 329.544 133.146L326.712 131.164C347.754 95.3297 354.565 67.6832 344.921 57.1827C336.997 48.5547 317.978 52.0793 292.72 66.8755C266.519 82.2224 236.372 107.776 207.844 138.837C179.315 169.898 155.845 202.721 141.75 231.249C128.16 258.749 124.923 279.456 132.847 288.084C142.491 298.584 167.884 291.168 200.796 268.258L202.617 271.342C178.911 287.827 159.15 296.381 145.493 296.381Z" fill="#383A48"/>
<path d="M113.12 279.199C112.687 279.2 112.271 279.022 111.956 278.7C111.641 278.378 111.451 277.937 111.425 277.467C111.399 276.997 111.539 276.535 111.817 276.174C112.094 275.813 112.488 275.582 112.917 275.527C114.165 275.38 115.446 275.16 116.795 274.903C117.233 274.817 117.684 274.924 118.049 275.199C118.415 275.475 118.665 275.897 118.745 276.373C118.825 276.849 118.729 277.34 118.477 277.739C118.226 278.138 117.839 278.412 117.402 278.501C115.986 278.795 114.603 279.015 113.254 279.162C113.221 279.199 113.187 279.199 113.12 279.199ZM103.071 278.758C102.946 278.766 102.821 278.754 102.7 278.721C101.257 278.362 99.8553 277.833 98.5182 277.143C98.1166 276.928 97.8096 276.548 97.6647 276.088C97.5198 275.627 97.5488 275.122 97.7454 274.684C97.9419 274.247 98.2899 273.912 98.713 273.753C99.136 273.594 99.5996 273.625 100.002 273.838C101.109 274.414 102.275 274.845 103.475 275.123C103.692 275.175 103.897 275.273 104.078 275.413C104.259 275.552 104.413 275.73 104.529 275.936C104.646 276.142 104.723 276.371 104.756 276.61C104.789 276.849 104.778 277.092 104.723 277.326C104.634 277.731 104.423 278.093 104.123 278.352C103.824 278.612 103.453 278.755 103.071 278.758ZM92.2798 269.653C91.9595 269.654 91.6458 269.553 91.3766 269.365C91.1073 269.176 90.894 268.906 90.7623 268.588C90.1659 267.123 89.7029 265.598 89.3797 264.035C89.3299 263.799 89.3235 263.554 89.361 263.314C89.3984 263.075 89.4789 262.846 89.5978 262.641C89.7167 262.435 89.8717 262.257 90.0539 262.117C90.2361 261.977 90.4419 261.878 90.6595 261.825C90.8771 261.771 91.1022 261.766 91.3219 261.807C91.5416 261.849 91.7515 261.938 91.9397 262.068C92.1278 262.199 92.2905 262.368 92.4183 262.567C92.5461 262.766 92.6365 262.991 92.6844 263.228C92.9441 264.528 93.3284 265.796 93.8309 267.009C93.927 267.226 93.9823 267.461 93.9934 267.701C94.0046 267.941 93.9715 268.181 93.8961 268.407C93.8206 268.633 93.7044 268.84 93.5542 269.016C93.404 269.192 93.2229 269.334 93.0216 269.433C92.7955 269.573 92.5402 269.649 92.2798 269.653ZM90.6949 254.526H90.4925C90.0515 254.469 89.6488 254.225 89.3713 253.847C89.0938 253.469 88.9636 252.988 89.0088 252.507C89.1437 251.075 89.3797 249.57 89.6495 248.028C89.6887 247.791 89.7704 247.564 89.89 247.362C90.0097 247.159 90.1648 246.985 90.3466 246.848C90.5285 246.711 90.7333 246.614 90.9495 246.563C91.1657 246.513 91.3889 246.509 91.6064 246.553C91.8239 246.596 92.0314 246.686 92.2169 246.817C92.4025 246.948 92.5624 247.117 92.6877 247.316C92.8129 247.514 92.9009 247.738 92.9466 247.973C92.9923 248.209 92.9949 248.452 92.9542 248.689C92.6844 250.12 92.5158 251.552 92.3809 252.911C92.3267 253.356 92.126 253.766 91.8161 254.063C91.5061 254.36 91.1078 254.524 90.6949 254.526ZM93.9321 239.51C93.7476 239.509 93.5648 239.471 93.3926 239.4C92.9727 239.241 92.6257 238.911 92.4244 238.48C92.2232 238.049 92.1834 237.549 92.3135 237.087C92.7181 235.728 93.1902 234.296 93.6961 232.864C93.8526 232.412 94.1679 232.045 94.5726 231.845C94.9773 231.646 95.4384 231.629 95.8542 231.8C96.2701 231.97 96.6068 232.313 96.7902 232.754C96.9736 233.195 96.9887 233.697 96.8322 234.149C96.3601 235.545 95.888 236.903 95.4833 238.225C95.3939 238.597 95.1925 238.926 94.9114 239.159C94.6302 239.392 94.2854 239.515 93.9321 239.51ZM99.2264 225.228C98.9813 225.219 98.7404 225.157 98.5182 225.044C98.3178 224.944 98.1375 224.802 97.988 224.626C97.8386 224.449 97.7228 224.242 97.6475 224.017C97.5721 223.791 97.5388 223.552 97.5493 223.312C97.5599 223.072 97.6141 222.837 97.7089 222.621C98.2822 221.299 98.8554 219.941 99.4961 218.619C99.6934 218.182 100.042 217.847 100.465 217.69C100.889 217.532 101.352 217.563 101.754 217.777C102.156 217.991 102.464 218.37 102.609 218.831C102.755 219.292 102.727 219.796 102.531 220.234C101.924 221.556 101.351 222.878 100.778 224.163C100.641 224.484 100.422 224.756 100.147 224.945C99.8713 225.134 99.5517 225.232 99.2264 225.228ZM105.701 211.533C105.418 211.534 105.14 211.458 104.892 211.313C104.698 211.195 104.528 211.038 104.391 210.848C104.254 210.659 104.152 210.442 104.093 210.21C104.033 209.978 104.016 209.735 104.044 209.496C104.071 209.256 104.141 209.025 104.251 208.816C104.892 207.568 105.566 206.283 106.274 204.961C106.499 204.545 106.866 204.243 107.295 204.12C107.724 203.998 108.18 204.066 108.563 204.308C108.946 204.551 109.226 204.949 109.34 205.415C109.455 205.881 109.395 206.378 109.174 206.797C108.5 208.082 107.825 209.367 107.185 210.578C107.042 210.871 106.828 211.115 106.566 211.283C106.305 211.452 106.005 211.538 105.701 211.533ZM113.018 198.315C112.696 198.309 112.382 198.207 112.108 198.022C111.733 197.758 111.47 197.343 111.375 196.869C111.28 196.394 111.362 195.898 111.602 195.488C111.939 194.901 112.31 194.277 112.681 193.689C112.923 193.281 113.304 192.994 113.74 192.891C114.176 192.788 114.631 192.878 115.007 193.141C115.382 193.403 115.646 193.818 115.741 194.292C115.836 194.767 115.755 195.263 115.514 195.672C115.177 196.259 114.806 196.847 114.468 197.434C114.312 197.7 114.098 197.919 113.845 198.073C113.592 198.226 113.308 198.31 113.018 198.315Z" fill="#383A48"/>
<path d="M351.969 140.085C351.646 140.078 351.332 139.977 351.058 139.791C350.684 139.528 350.42 139.113 350.326 138.638C350.231 138.164 350.312 137.668 350.552 137.258C350.89 136.671 351.261 136.083 351.598 135.496C351.717 135.293 351.872 135.118 352.054 134.98C352.236 134.842 352.44 134.745 352.657 134.694C352.873 134.643 353.096 134.638 353.314 134.681C353.532 134.724 353.74 134.813 353.926 134.943C354.112 135.073 354.273 135.242 354.399 135.44C354.525 135.638 354.614 135.861 354.661 136.097C354.708 136.332 354.712 136.576 354.672 136.813C354.632 137.05 354.55 137.276 354.43 137.478C354.093 138.066 353.722 138.69 353.385 139.277C353.224 139.524 353.012 139.726 352.766 139.867C352.52 140.007 352.247 140.082 351.969 140.085ZM358.308 128.924C358.01 128.93 357.717 128.841 357.465 128.667C357.274 128.547 357.107 128.387 356.973 128.196C356.839 128.006 356.741 127.788 356.685 127.556C356.628 127.324 356.615 127.082 356.644 126.844C356.674 126.606 356.747 126.377 356.858 126.17C357.533 124.885 358.207 123.637 358.848 122.389C359.067 121.965 359.432 121.653 359.862 121.523C360.292 121.392 360.752 121.452 361.141 121.691C361.53 121.93 361.816 122.327 361.936 122.795C362.056 123.263 362.001 123.764 361.782 124.188C361.141 125.436 360.433 126.758 359.758 128.043C359.605 128.311 359.392 128.533 359.138 128.688C358.884 128.842 358.599 128.923 358.308 128.924ZM365.053 115.376C364.797 115.368 364.545 115.305 364.311 115.192C364.111 115.087 363.933 114.939 363.786 114.758C363.639 114.577 363.526 114.366 363.454 114.138C363.382 113.909 363.352 113.667 363.366 113.426C363.38 113.185 363.437 112.949 363.535 112.732C364.142 111.411 364.715 110.089 365.289 108.804C365.478 108.369 365.818 108.034 366.234 107.871C366.65 107.708 367.109 107.73 367.51 107.934C367.91 108.138 368.221 108.505 368.373 108.957C368.526 109.409 368.508 109.908 368.324 110.346C367.75 111.668 367.177 113.026 366.536 114.348C366.401 114.652 366.19 114.909 365.928 115.091C365.666 115.272 365.363 115.371 365.053 115.376ZM370.752 101.241C370.545 101.24 370.34 101.203 370.145 101.13C369.938 101.047 369.749 100.919 369.588 100.756C369.427 100.592 369.297 100.396 369.207 100.177C369.116 99.9588 369.065 99.7229 369.059 99.4833C369.052 99.2436 369.088 99.0049 369.167 98.7807C369.639 97.3856 370.111 96.0271 370.516 94.7053C370.666 94.2596 370.97 93.8949 371.362 93.6877C371.755 93.4806 372.206 93.4472 372.621 93.5945C373.036 93.7419 373.382 94.0585 373.586 94.4779C373.791 94.8973 373.839 95.3868 373.719 95.8435C373.314 97.202 372.842 98.6339 372.337 100.066C372.211 100.412 371.992 100.709 371.71 100.918C371.427 101.128 371.093 101.24 370.752 101.241ZM374.731 86.4812C374.628 86.4871 374.526 86.4747 374.427 86.4445C373.989 86.3562 373.601 86.0825 373.349 85.6833C373.096 85.2841 372.999 84.792 373.078 84.315C373.348 82.8831 373.517 81.4512 373.652 80.0927C373.701 79.6107 373.924 79.1698 374.272 78.8668C374.62 78.5638 375.064 78.4237 375.506 78.4773C375.949 78.5308 376.354 78.7737 376.632 79.1524C376.911 79.5311 377.039 80.0146 376.99 80.4966C376.855 81.9285 376.619 83.4338 376.349 84.9759C376.285 85.3938 376.087 85.7736 375.791 86.0488C375.495 86.3241 375.12 86.4771 374.731 86.4812ZM375.001 71.171C374.617 71.1713 374.245 71.0298 373.944 70.7696C373.644 70.5095 373.434 70.1462 373.348 69.7391C373.088 68.4384 372.704 67.1709 372.202 65.9574C372.017 65.5198 372 65.0206 372.152 64.5688C372.305 64.1169 372.615 63.7491 373.016 63.5455C373.416 63.3419 373.875 63.3191 374.291 63.4821C374.707 63.6451 375.047 63.9806 375.237 64.4154C375.833 65.8801 376.296 67.405 376.619 68.9681C376.717 69.4451 376.636 69.9448 376.396 70.3577C376.156 70.7705 375.775 71.063 375.338 71.171C375.226 71.1525 375.112 71.1525 375.001 71.171ZM366.772 59.2753C366.517 59.2671 366.265 59.2047 366.031 59.0917C364.923 58.516 363.757 58.0847 362.557 57.8067C362.343 57.7512 362.14 57.6503 361.961 57.5096C361.782 57.3688 361.63 57.1911 361.514 56.9866C361.399 56.782 361.321 56.5546 361.286 56.3174C361.251 56.0801 361.259 55.8376 361.31 55.6038C361.361 55.3699 361.453 55.1493 361.583 54.9545C361.712 54.7597 361.875 54.5945 362.063 54.4683C362.251 54.3422 362.46 54.2575 362.677 54.2193C362.895 54.181 363.118 54.1899 363.333 54.2453C364.775 54.6048 366.177 55.1341 367.514 55.8241C367.714 55.9298 367.892 56.0774 368.039 56.2584C368.186 56.4393 368.299 56.6501 368.371 56.8787C368.443 57.1072 368.473 57.349 368.459 57.5902C368.445 57.8313 368.388 58.0671 368.29 58.284C368.149 58.5884 367.931 58.8431 367.663 59.0186C367.394 59.194 367.086 59.283 366.772 59.2753ZM348.9 58.0637C348.481 58.0626 348.077 57.8911 347.767 57.5828C347.458 57.2745 347.266 56.8516 347.228 56.3968C347.19 55.9421 347.309 55.4883 347.562 55.1243C347.815 54.7603 348.184 54.5123 348.597 54.4289C350.013 54.1352 351.395 53.9149 352.744 53.768C352.964 53.7415 353.185 53.7623 353.397 53.8291C353.609 53.8959 353.807 54.0075 353.979 54.1575C354.151 54.3075 354.295 54.493 354.401 54.7034C354.507 54.9137 354.575 55.1448 354.599 55.3835C354.623 55.6221 354.604 55.8637 354.543 56.0943C354.482 56.325 354.379 56.5402 354.241 56.7277C354.103 56.9152 353.933 57.0714 353.74 57.1872C353.547 57.303 353.334 57.3763 353.115 57.4028C351.868 57.5497 350.586 57.77 349.237 58.027C349.127 58.0556 349.013 58.068 348.9 58.0637Z" fill="#383A48"/>
<path d="M294.467 82.7806C298.171 71.6902 292.916 59.4304 282.73 55.3975C272.544 51.3646 261.284 57.0859 257.58 68.1763C253.876 79.2668 259.131 91.5266 269.317 95.5595C279.503 99.5923 290.763 93.871 294.467 82.7806Z" fill="#F3F6E6"/>
<path d="M276.027 98.634C271.812 98.634 267.691 97.2731 264.187 94.7234C260.682 92.1737 257.95 88.5498 256.337 84.3098C254.724 80.0698 254.302 75.4043 255.124 70.9032C255.947 66.402 257.976 62.2675 260.957 59.0224C263.938 55.7772 267.735 53.5673 271.869 52.6719C276.003 51.7766 280.288 52.2361 284.183 53.9924C288.077 55.7486 291.405 58.7227 293.747 62.5386C296.089 66.3545 297.339 70.8407 297.339 75.43C297.332 81.582 295.085 87.4801 291.09 91.8302C287.094 96.1803 281.677 98.6272 276.027 98.634ZM276.027 55.9343C272.479 55.9343 269.01 57.0799 266.06 59.2261C263.11 61.3724 260.81 64.4229 259.453 67.992C258.095 71.5611 257.739 75.4884 258.432 79.2773C259.124 83.0663 260.833 86.5466 263.341 89.2783C265.85 92.0099 269.047 93.8702 272.527 94.6239C276.007 95.3775 279.614 94.9907 282.892 93.5124C286.17 92.034 288.972 89.5305 290.943 86.3184C292.914 83.1063 293.967 79.3299 293.967 75.4667C293.963 70.2876 292.072 65.3217 288.708 61.6595C285.345 57.9973 280.784 55.9382 276.027 55.9343Z" fill="#383A48"/>
<path d="M464.637 125.566C495.851 125.566 521.155 97.9999 521.155 63.9957C521.155 29.9916 495.851 2.42578 464.637 2.42578C433.423 2.42578 408.119 29.9916 408.119 63.9957C408.119 97.9999 433.423 125.566 464.637 125.566Z" fill="#7FD6C2"/>
<path d="M464.637 127.895C432.311 127.895 406.022 99.2567 406.022 64.0412C406.022 28.8257 432.311 0.1875 464.637 0.1875C496.962 0.1875 523.251 28.8257 523.251 64.0412C523.293 99.211 496.962 127.895 464.637 127.895ZM464.637 4.70933C434.617 4.70933 410.215 31.2922 410.215 63.9955C410.215 96.6989 434.617 123.282 464.637 123.282C494.656 123.282 519.058 96.6989 519.058 63.9955C519.058 31.2922 494.656 4.70933 464.637 4.70933Z" fill="#383A48"/>
<path d="M464.637 63.0361C472.788 63.0361 479.396 55.8379 479.396 46.9585C479.396 38.0791 472.788 30.8809 464.637 30.8809C456.486 30.8809 449.879 38.0791 449.879 46.9585C449.879 55.8379 456.486 63.0361 464.637 63.0361Z" fill="#F3F6E6"/>
<path d="M464.637 65.3199C455.371 65.3199 447.782 57.0984 447.782 46.9585C447.782 36.8644 455.329 28.5972 464.637 28.5972C473.903 28.5972 481.492 36.8187 481.492 46.9585C481.492 57.0984 473.945 65.3199 464.637 65.3199ZM464.637 33.2104C457.677 33.2104 451.975 39.3765 451.975 47.0042C451.975 54.632 457.635 60.7981 464.637 60.7981C471.597 60.7981 477.299 54.632 477.299 47.0042C477.299 39.3765 471.639 33.2104 464.637 33.2104Z" fill="#383A48"/>
<path d="M487.865 94.369H441.451V88.3399C441.451 74.3633 451.849 63.0815 464.637 63.0815C477.467 63.0815 487.823 74.409 487.823 88.3399L487.865 94.369Z" fill="#F3F6E6"/>
<path d="M487.864 96.6528H441.451C440.277 96.6528 439.354 95.6479 439.354 94.369V88.3399C439.354 73.1301 450.717 60.7979 464.637 60.7979C478.556 60.7979 489.919 73.1758 489.919 88.3399V94.369C489.961 95.6022 488.996 96.6528 487.864 96.6528ZM443.547 92.0853H485.768V88.3399C485.768 75.6423 476.292 65.3654 464.678 65.3654C453.023 65.3654 443.589 75.6879 443.589 88.3399L443.547 92.0853Z" fill="#383A48"/>
<path d="M501.911 308.037C521.94 308.037 538.177 290.349 538.177 268.528C538.177 246.708 521.94 229.02 501.911 229.02C481.881 229.02 465.644 246.708 465.644 268.528C465.644 290.349 481.881 308.037 501.911 308.037Z" fill="#F6E049"/>
<path d="M501.91 310.321C480.737 310.321 463.547 291.549 463.547 268.528C463.547 245.508 480.779 226.736 501.91 226.736C523.041 226.736 540.273 245.508 540.273 268.528C540.273 291.549 523.083 310.321 501.91 310.321ZM501.91 231.258C483.043 231.258 467.74 247.975 467.74 268.483C467.74 288.991 483.085 305.708 501.91 305.708C520.777 305.708 536.081 288.991 536.081 268.483C536.081 247.975 520.777 231.258 501.91 231.258Z" fill="#383A48"/>
<path d="M501.911 267.889C507.144 267.889 511.387 263.267 511.387 257.566C511.387 251.865 507.144 247.244 501.911 247.244C496.678 247.244 492.436 251.865 492.436 257.566C492.436 263.267 496.678 267.889 501.911 267.889Z" fill="#F3F6E6"/>
<path d="M501.911 270.173C495.538 270.173 490.339 264.509 490.339 257.566C490.339 250.624 495.538 244.96 501.911 244.96C508.284 244.96 513.483 250.624 513.483 257.566C513.483 264.509 508.284 270.173 501.911 270.173ZM501.911 249.573C497.844 249.573 494.532 253.181 494.532 257.612C494.532 262.042 497.844 265.651 501.911 265.651C505.978 265.651 509.29 262.042 509.29 257.612C509.29 253.136 505.978 249.573 501.911 249.573Z" fill="#383A48"/>
<path d="M516.837 287.986H487.068V284.103C487.068 275.151 493.735 267.889 501.953 267.889C510.17 267.889 516.837 275.151 516.837 284.103V287.986Z" fill="#F3F6E6"/>
<path d="M516.836 290.27H487.068C485.894 290.27 484.972 289.265 484.972 287.986V284.103C484.972 273.918 492.602 265.605 501.952 265.605C511.302 265.605 518.933 273.918 518.933 284.103V287.986C518.933 289.265 517.968 290.27 516.836 290.27ZM489.122 285.702H514.698V284.103C514.698 276.43 508.954 270.172 501.91 270.172C494.867 270.172 489.122 276.43 489.122 284.103V285.702Z" fill="#383A48"/>
<path d="M464.637 178.457H389V173.89H462.54V125.611H466.733V176.219C466.733 177.452 465.811 178.457 464.637 178.457Z" fill="#383A48"/>
<path d="M504.006 228.974H499.814V178.457H464.637V173.89H501.91C503.084 173.89 504.006 174.894 504.006 176.173V228.974Z" fill="#383A48"/>
<path d="M503.911 181.335C506.527 181.335 508.648 179.024 508.648 176.174C508.648 173.323 506.527 171.012 503.911 171.012C501.294 171.012 499.173 173.323 499.173 176.174C499.173 179.024 501.294 181.335 503.911 181.335Z" fill="#383A48"/>
<path d="M503.91 183.619C500.137 183.619 497.076 180.284 497.076 176.174C497.076 172.063 500.137 168.729 503.91 168.729C507.684 168.729 510.744 172.063 510.744 176.174C510.744 180.284 507.684 183.619 503.91 183.619ZM503.91 173.296C502.443 173.296 501.269 174.575 501.269 176.174C501.269 177.772 502.443 179.051 503.91 179.051C505.378 179.051 506.552 177.772 506.552 176.174C506.552 174.575 505.378 173.296 503.91 173.296Z" fill="#383A48"/>
<path d="M40.5039 255.978C61.9254 255.978 79.291 237.06 79.291 213.723C79.291 190.387 61.9254 171.469 40.5039 171.469C19.0824 171.469 1.7168 190.387 1.7168 213.723C1.7168 237.06 19.0824 255.978 40.5039 255.978Z" fill="#AAC6FC"/>
<path d="M40.5033 257.81C18.1922 257.81 0 238.029 0 213.686C0 189.343 18.1578 169.562 40.5033 169.562C62.8488 169.562 81.0067 189.343 81.0067 213.686C81.0067 238.029 62.8145 257.81 40.5033 257.81ZM40.5033 173.338C20.08 173.338 3.43249 191.437 3.43249 213.723C3.43249 235.972 20.0457 254.108 40.5033 254.108C60.9266 254.108 77.5742 236.009 77.5742 213.723C77.5398 191.437 60.9266 173.338 40.5033 173.338Z" fill="#383A48"/>
<path d="M40.5036 213.013C46.077 213.013 50.5951 208.091 50.5951 202.019C50.5951 195.947 46.077 191.025 40.5036 191.025C34.9302 191.025 30.4121 195.947 30.4121 202.019C30.4121 208.091 34.9302 213.013 40.5036 213.013Z" fill="#F3F6E6"/>
<path d="M40.5031 214.882C33.9813 214.882 28.6953 209.086 28.6953 202.019C28.6953 194.952 34.0157 189.156 40.5031 189.156C46.9905 189.156 52.3109 194.952 52.3109 202.019C52.3109 209.086 47.0248 214.882 40.5031 214.882ZM40.5031 192.858C35.8692 192.858 32.1278 196.971 32.1278 201.982C32.1278 206.992 35.9035 211.106 40.5031 211.106C45.1026 211.106 48.8784 206.992 48.8784 201.982C48.8784 196.971 45.1026 192.858 40.5031 192.858Z" fill="#383A48"/>
<path d="M56.3973 234.514H24.5781V230.363C24.5781 220.79 31.7177 213.013 40.5049 213.013C49.2921 213.013 56.4316 220.79 56.4316 230.363L56.3973 234.514Z" fill="#F3F6E6"/>
<path d="M56.3967 236.384H24.5776C23.6165 236.384 22.8613 235.561 22.8613 234.514V230.363C22.8613 219.781 30.756 211.143 40.5043 211.143C50.2182 211.143 58.1473 219.744 58.1473 230.363V234.514C58.113 235.561 57.3578 236.384 56.3967 236.384ZM26.2938 232.644H54.6805V230.363C54.6805 221.838 48.296 214.882 40.47 214.882C32.6439 214.882 26.2595 221.838 26.2595 230.363L26.2938 232.644Z" fill="#383A48"/>
<path d="M40.5037 149.893C42.6459 149.893 44.3824 148.001 44.3824 145.667C44.3824 143.334 42.6459 141.442 40.5037 141.442C38.3616 141.442 36.625 143.334 36.625 145.667C36.625 148.001 38.3616 149.893 40.5037 149.893Z" fill="#383A48"/>
<path d="M40.5032 151.762C37.4139 151.762 34.9082 149.033 34.9082 145.667C34.9082 142.302 37.4139 139.572 40.5032 139.572C43.5924 139.572 46.0981 142.302 46.0981 145.667C46.0638 148.995 43.5581 151.762 40.5032 151.762ZM40.5032 143.312C39.3018 143.312 38.3407 144.359 38.3407 145.667C38.3407 146.976 39.3018 148.023 40.5032 148.023C41.7045 148.023 42.6656 146.976 42.6656 145.667C42.6656 144.359 41.6702 143.312 40.5032 143.312Z" fill="#383A48"/>
<path d="M42.2196 171.469H38.7871V145.668C38.7871 144.621 39.5423 143.798 40.5034 143.798H105V147.537H42.2196V171.469Z" fill="#383A48"/>
</svg>
