<svg width="387" height="88" viewBox="0 0 387 88" fill="none" xmlns="http://www.w3.org/2000/svg">
<mask id="path-1-outside-1_3220_754" maskUnits="userSpaceOnUse" x="-3" y="8" width="392" height="83" fill="black">
<rect fill="white" x="-3" y="8" width="392" height="83"/>
<path d="M31.5308 55.8276C31.5308 53.9478 30.8594 52.4829 29.5166 51.4331C28.1982 50.3833 25.8667 49.2969 22.522 48.1738C19.1772 47.0508 16.4429 45.9644 14.3188 44.9146C7.40967 41.521 3.95508 36.8579 3.95508 30.9253C3.95508 27.9712 4.80957 25.3711 6.51855 23.125C8.25195 20.8545 10.6934 19.0967 13.8428 17.8516C16.9922 16.582 20.5322 15.9473 24.4629 15.9473C28.2959 15.9473 31.7261 16.6309 34.7534 17.998C37.8052 19.3652 40.1733 21.3184 41.8579 23.8574C43.5425 26.3721 44.3848 29.2529 44.3848 32.5H31.5674C31.5674 30.3271 30.896 28.6426 29.5532 27.4463C28.2349 26.25 26.4404 25.6519 24.1699 25.6519C21.875 25.6519 20.0562 26.1646 18.7134 27.1899C17.395 28.1909 16.7358 29.4727 16.7358 31.0352C16.7358 32.4023 17.4683 33.6475 18.9331 34.7705C20.3979 35.8691 22.9736 37.0166 26.6602 38.2129C30.3467 39.3848 33.374 40.6543 35.7422 42.0215C41.5039 45.3418 44.3848 49.9194 44.3848 55.7544C44.3848 60.4175 42.627 64.0796 39.1113 66.7407C35.5957 69.4019 30.7739 70.7324 24.646 70.7324C20.3247 70.7324 16.4062 69.9634 12.8906 68.4253C9.39941 66.8628 6.7627 64.7388 4.98047 62.0532C3.22266 59.3433 2.34375 56.2305 2.34375 52.7148H15.2344C15.2344 55.5713 15.9668 57.6831 17.4316 59.0503C18.9209 60.3931 21.3257 61.0645 24.646 61.0645C26.77 61.0645 28.4424 60.6128 29.6631 59.7095C30.9082 58.7817 31.5308 57.4878 31.5308 55.8276ZM96.9448 50.481C96.9448 56.6333 95.5532 61.5527 92.77 65.2393C90.0112 68.9014 86.2759 70.7324 81.564 70.7324C77.9263 70.7324 74.9355 69.4019 72.5918 66.7407V85.2344H60.2505V30.376H71.7861L72.1523 34.0381C74.5205 31.1084 77.6333 29.6436 81.4907 29.6436C86.3735 29.6436 90.1699 31.4502 92.8799 35.0635C95.5898 38.6523 96.9448 43.5962 96.9448 49.895V50.481ZM84.6035 49.7119C84.6035 42.6807 82.5527 39.165 78.4512 39.165C75.5215 39.165 73.5684 40.2148 72.5918 42.3145V57.915C73.666 60.1123 75.6436 61.2109 78.5244 61.2109C82.4551 61.2109 84.4814 57.8174 84.6035 51.0303V49.7119ZM131.341 70.7324C125.262 70.7324 120.342 68.9258 116.583 65.3125C112.823 61.6748 110.943 56.9507 110.943 51.1401V50.1147C110.943 46.062 111.688 42.4854 113.177 39.3848C114.69 36.2842 116.888 33.8916 119.769 32.207C122.649 30.498 126.067 29.6436 130.022 29.6436C135.589 29.6436 139.983 31.377 143.206 34.8438C146.429 38.2861 148.04 43.0957 148.04 49.2725V54.0698H123.504C123.943 56.2915 124.908 58.0371 126.397 59.3066C127.886 60.5762 129.815 61.2109 132.183 61.2109C136.089 61.2109 139.141 59.8438 141.338 57.1094L146.978 63.7744C145.44 65.8984 143.255 67.5952 140.423 68.8647C137.615 70.1099 134.588 70.7324 131.341 70.7324ZM129.949 39.165C126.336 39.165 124.188 41.5576 123.504 46.3428H135.955V45.3906C136.004 43.4131 135.503 41.8872 134.454 40.813C133.404 39.7144 131.902 39.165 129.949 39.165ZM185.109 70C184.67 69.1943 184.279 68.0103 183.938 66.4478C181.667 69.3042 178.493 70.7324 174.416 70.7324C170.681 70.7324 167.507 69.6094 164.895 67.3633C162.282 65.0928 160.976 62.2485 160.976 58.8306C160.976 54.5337 162.563 51.2866 165.737 49.0894C168.911 46.8921 173.525 45.7935 179.58 45.7935H183.388V43.7061C183.388 40.0684 181.813 38.2495 178.664 38.2495C175.734 38.2495 174.27 39.6899 174.27 42.5708H161.928C161.928 38.7378 163.552 35.625 166.799 33.2324C170.07 30.8398 174.233 29.6436 179.287 29.6436C184.34 29.6436 188.332 30.8765 191.262 33.3423C194.191 35.8081 195.693 39.1895 195.766 43.4863V61.0278C195.815 64.6655 196.376 67.4487 197.451 69.3774V70H185.109ZM177.382 61.9434C178.92 61.9434 180.19 61.6138 181.191 60.9546C182.216 60.2954 182.949 59.5508 183.388 58.7207V52.3853H179.799C175.502 52.3853 173.354 54.314 173.354 58.1714C173.354 59.2944 173.732 60.21 174.489 60.918C175.246 61.6016 176.21 61.9434 177.382 61.9434ZM228.294 55.2417L224.815 58.7207V70H212.474V13.7134H224.815V43.5962L226.061 41.9482L235.362 30.376H250.157L236.278 46.6724L251.073 70H236.937L228.294 55.2417ZM281.587 70.7324C275.508 70.7324 270.588 68.9258 266.829 65.3125C263.069 61.6748 261.189 56.9507 261.189 51.1401V50.1147C261.189 46.062 261.934 42.4854 263.423 39.3848C264.937 36.2842 267.134 33.8916 270.015 32.207C272.896 30.498 276.313 29.6436 280.269 29.6436C285.835 29.6436 290.229 31.377 293.452 34.8438C296.675 38.2861 298.286 43.0957 298.286 49.2725V54.0698H273.75C274.189 56.2915 275.154 58.0371 276.643 59.3066C278.132 60.5762 280.061 61.2109 282.429 61.2109C286.335 61.2109 289.387 59.8438 291.584 57.1094L297.224 63.7744C295.686 65.8984 293.501 67.5952 290.669 68.8647C287.861 70.1099 284.834 70.7324 281.587 70.7324ZM280.195 39.165C276.582 39.165 274.434 41.5576 273.75 46.3428H286.201V45.3906C286.25 43.4131 285.75 41.8872 284.7 40.813C283.65 39.7144 282.148 39.165 280.195 39.165ZM337.003 41.5454L332.938 41.2524C329.057 41.2524 326.566 42.4731 325.468 44.9146V70H313.126V30.376H324.699L325.102 35.4663C327.177 31.5845 330.07 29.6436 333.781 29.6436C335.099 29.6436 336.247 29.79 337.223 30.083L337.003 41.5454ZM371.949 58.8672C371.949 57.8174 371.399 56.9751 370.301 56.3403C369.202 55.7056 367.115 55.0464 364.039 54.3628C360.962 53.6792 358.423 52.7881 356.421 51.6895C354.419 50.5664 352.894 49.2114 351.844 47.6245C350.794 46.0376 350.269 44.2188 350.269 42.168C350.269 38.5303 351.771 35.5396 354.773 33.1958C357.776 30.8276 361.707 29.6436 366.565 29.6436C371.79 29.6436 375.989 30.8276 379.163 33.1958C382.337 35.564 383.924 38.6768 383.924 42.5342H371.546C371.546 39.3604 369.874 37.7734 366.529 37.7734C365.235 37.7734 364.148 38.1396 363.27 38.8721C362.391 39.5801 361.951 40.4712 361.951 41.5454C361.951 42.644 362.488 43.5352 363.562 44.2188C364.637 44.9023 366.346 45.4639 368.689 45.9033C371.058 46.3428 373.133 46.8677 374.915 47.478C380.872 49.5288 383.851 53.2031 383.851 58.501C383.851 62.1143 382.239 65.0562 379.017 67.3267C375.818 69.5972 371.668 70.7324 366.565 70.7324C363.172 70.7324 360.145 70.1221 357.483 68.9014C354.822 67.6807 352.747 66.0205 351.258 63.9209C349.769 61.8213 349.024 59.6118 349.024 57.2925H360.56C360.608 59.1235 361.219 60.4663 362.391 61.3208C363.562 62.1509 365.064 62.5659 366.895 62.5659C368.58 62.5659 369.837 62.2241 370.667 61.5405C371.521 60.8569 371.949 59.9658 371.949 58.8672Z"/>
</mask>
<path d="M29.5166 51.4331L26.402 55.3445L26.4194 55.3584L26.437 55.3721L29.5166 51.4331ZM14.3188 44.9146L16.5343 40.4321L16.5231 40.4267L14.3188 44.9146ZM6.51855 23.125L2.54434 20.0909L2.53941 20.0974L6.51855 23.125ZM13.8428 17.8516L15.6811 22.5014L15.6966 22.4952L15.7121 22.489L13.8428 17.8516ZM34.7534 17.998L32.6955 22.5549L32.7023 22.558L32.7092 22.5611L34.7534 17.998ZM41.8579 23.8574L37.6915 26.6217L37.6977 26.631L37.7039 26.6402L41.8579 23.8574ZM44.3848 32.5V37.5H49.3848V32.5H44.3848ZM31.5674 32.5H26.5674V37.5H31.5674V32.5ZM29.5532 27.4463L26.1933 31.1491L26.2102 31.1644L26.2272 31.1796L29.5532 27.4463ZM18.7134 27.1899L21.7369 31.1722L21.7479 31.1638L18.7134 27.1899ZM18.9331 34.7705L15.8909 38.7385L15.9119 38.7546L15.9331 38.7705L18.9331 34.7705ZM26.6602 38.2129L25.1169 42.9688L25.1311 42.9734L25.1454 42.9779L26.6602 38.2129ZM35.7422 42.0215L33.2423 46.3517L33.2457 46.3536L35.7422 42.0215ZM12.8906 68.4253L10.8481 72.9891L10.8673 72.9977L10.8865 73.0061L12.8906 68.4253ZM4.98047 62.0532L0.785662 64.7742L0.799916 64.7962L0.8144 64.818L4.98047 62.0532ZM2.34375 52.7148V47.7148H-2.65625V52.7148H2.34375ZM15.2344 52.7148H20.2344V47.7148H15.2344V52.7148ZM17.4316 59.0503L14.02 62.7056L14.0515 62.7349L14.0835 62.7637L17.4316 59.0503ZM29.6631 59.7095L32.6373 63.7287L32.6439 63.7238L32.6505 63.7189L29.6631 59.7095ZM36.5308 55.8276C36.5308 52.5905 35.287 49.5978 32.5962 47.4941L26.437 55.3721C26.4855 55.41 26.499 55.4287 26.4953 55.4241C26.4908 55.4185 26.4847 55.4086 26.4819 55.4024C26.4721 55.381 26.5308 55.4878 26.5308 55.8276H36.5308ZM32.6312 47.5217C30.5865 45.8935 27.5413 44.5848 24.1135 43.4339L20.9305 52.9138C24.1921 54.0089 25.81 54.8731 26.402 55.3445L32.6312 47.5217ZM24.1135 43.4339C20.8898 42.3515 18.3846 41.3467 16.5343 40.4322L12.1034 49.3969C14.5012 50.582 17.4647 51.7501 20.9305 52.9138L24.1135 43.4339ZM16.5231 40.4267C10.7218 37.5773 8.95508 34.3606 8.95508 30.9253H-1.04492C-1.04492 39.3553 4.0975 45.4647 12.1146 49.4024L16.5231 40.4267ZM8.95508 30.9253C8.95508 29.0102 9.48336 27.4857 10.4977 26.1526L2.53941 20.0974C0.13578 23.2564 -1.04492 26.9322 -1.04492 30.9253H8.95508ZM10.4928 26.1591C11.5795 24.7356 13.219 23.4747 15.6811 22.5014L12.0045 13.2018C8.16768 14.7186 4.9244 16.9734 2.54434 20.0909L10.4928 26.1591ZM15.7121 22.489C18.1814 21.4936 21.0731 20.9473 24.4629 20.9473V10.9473C19.9913 10.9473 15.8029 11.6705 11.9734 13.2142L15.7121 22.489ZM24.4629 20.9473C27.6949 20.9473 30.4071 21.5214 32.6955 22.5549L36.8114 13.4412C33.045 11.7403 28.8969 10.9473 24.4629 10.9473V20.9473ZM32.7092 22.5611C34.9848 23.5806 36.5804 24.9469 37.6915 26.6217L46.0243 21.0932C43.7663 17.6898 40.6255 15.1499 36.7976 13.435L32.7092 22.5611ZM37.7039 26.6402C38.7963 28.2709 39.3848 30.1682 39.3848 32.5H49.3848C49.3848 28.3377 48.2887 24.4733 46.0119 21.0746L37.7039 26.6402ZM44.3848 27.5H31.5674V37.5H44.3848V27.5ZM36.5674 32.5C36.5674 29.2241 35.5065 26.0536 32.8793 23.713L26.2272 31.1796C26.2855 31.2315 26.5674 31.4302 26.5674 32.5H36.5674ZM32.9132 23.7435C30.4428 21.5018 27.3289 20.6519 24.1699 20.6519V30.6519C25.5519 30.6519 26.027 30.9982 26.1933 31.1491L32.9132 23.7435ZM24.1699 20.6519C21.1668 20.6519 18.1584 21.3226 15.6788 23.2161L21.7479 31.1638C21.9539 31.0065 22.5832 30.6519 24.1699 30.6519V20.6519ZM15.6898 23.2077C13.2124 25.0888 11.7358 27.8043 11.7358 31.0352H21.7358C21.7358 30.998 21.7395 31.0052 21.7303 31.0448C21.7208 31.0861 21.703 31.1375 21.6767 31.1887C21.6643 31.2127 21.6525 31.232 21.6428 31.2463C21.6331 31.2605 21.6272 31.2674 21.6273 31.2672C21.6274 31.2671 21.6569 31.2329 21.7369 31.1722L15.6898 23.2077ZM11.7358 31.0352C11.7358 34.4619 13.6565 37.0255 15.8909 38.7385L21.9753 30.8025C21.6177 30.5284 21.5579 30.3964 21.5948 30.4593C21.6162 30.4957 21.6554 30.5732 21.6875 30.6878C21.7201 30.8041 21.7358 30.9243 21.7358 31.0352H11.7358ZM15.9331 38.7705C18.1027 40.3977 21.3574 41.7488 25.1169 42.9688L28.2034 33.457C24.5898 32.2844 22.6932 31.3406 21.9331 30.7705L15.9331 38.7705ZM25.1454 42.9779C28.6179 44.0818 31.2846 45.2215 33.2423 46.3517L38.2421 37.6913C35.4634 36.0871 32.0754 34.6878 28.1749 33.4478L25.1454 42.9779ZM33.2457 46.3536C37.7181 48.931 39.3848 51.988 39.3848 55.7544H49.3848C49.3848 47.8509 45.2897 41.7526 38.2387 37.6893L33.2457 46.3536ZM39.3848 55.7544C39.3848 58.9565 38.2792 61.0997 36.0936 62.7541L42.129 70.7274C46.9747 67.0595 49.3848 61.8784 49.3848 55.7544H39.3848ZM36.0936 62.7541C33.7283 64.5445 30.1004 65.7324 24.646 65.7324V75.7324C31.4474 75.7324 37.4631 74.2592 42.129 70.7274L36.0936 62.7541ZM24.646 65.7324C20.9275 65.7324 17.7033 65.0732 14.8947 63.8445L10.8865 73.0061C15.1092 74.8535 19.7219 75.7324 24.646 75.7324V65.7324ZM14.9332 63.8615C12.1424 62.6125 10.3146 61.0485 9.14654 59.2885L0.8144 64.818C3.21082 68.429 6.65643 71.1131 10.8481 72.9891L14.9332 63.8615ZM9.17528 59.3323C7.98937 57.504 7.34375 55.3537 7.34375 52.7148H-2.65625C-2.65625 57.1073 -1.54406 61.1825 0.785662 64.7742L9.17528 59.3323ZM2.34375 57.7148H15.2344V47.7148H2.34375V57.7148ZM10.2344 52.7148C10.2344 56.3562 11.1734 60.0487 14.02 62.7056L20.8432 55.395C20.7601 55.3175 20.2344 54.7864 20.2344 52.7148H10.2344ZM14.0835 62.7637C16.9306 65.3308 20.8467 66.0645 24.646 66.0645V56.0645C21.8047 56.0645 20.9112 55.4553 20.7798 55.3369L14.0835 62.7637ZM24.646 66.0645C27.4248 66.0645 30.2726 65.4785 32.6373 63.7287L26.6889 55.6903C26.6121 55.747 26.1152 56.0645 24.646 56.0645V66.0645ZM32.6505 63.7189C35.2607 61.774 36.5308 58.9399 36.5308 55.8276H26.5308C26.5308 55.9302 26.5212 55.9745 26.5215 55.973C26.5223 55.9693 26.531 55.932 26.5582 55.8754C26.5858 55.818 26.6201 55.7666 26.6529 55.7276C26.6846 55.6899 26.6989 55.6828 26.6757 55.7001L32.6505 63.7189ZM92.77 65.2393L88.7796 62.2266L88.7764 62.2307L92.77 65.2393ZM72.5918 66.7407L76.344 63.436L67.5918 53.4986V66.7407H72.5918ZM72.5918 85.2344V90.2344H77.5918V85.2344H72.5918ZM60.2505 85.2344H55.2505V90.2344H60.2505V85.2344ZM60.2505 30.376V25.376H55.2505V30.376H60.2505ZM71.7861 30.376L76.7613 29.8785L76.3111 25.376H71.7861V30.376ZM72.1523 34.0381L67.1772 34.5356L68.3884 46.6482L76.0408 37.1813L72.1523 34.0381ZM92.8799 35.0635L88.8799 38.0635L88.8848 38.07L88.8897 38.0765L92.8799 35.0635ZM72.5918 42.3145L68.0582 40.2058L67.5918 41.2085V42.3145H72.5918ZM72.5918 57.915H67.5918V59.0718L68.0999 60.1111L72.5918 57.915ZM84.6035 51.0303L89.6027 51.1202L89.6035 51.0752V51.0303H84.6035ZM91.9448 50.481C91.9448 55.9048 90.7202 59.6561 88.7796 62.2266L96.7605 68.2519C100.386 63.4493 101.945 57.3618 101.945 50.481H91.9448ZM88.7764 62.2307C86.9926 64.5986 84.7569 65.7324 81.564 65.7324V75.7324C87.7948 75.7324 93.0298 73.2041 96.7636 68.2478L88.7764 62.2307ZM81.564 65.7324C79.32 65.7324 77.7109 64.988 76.344 63.436L68.8396 70.0454C72.1602 73.8157 76.5325 75.7324 81.564 75.7324V65.7324ZM67.5918 66.7407V85.2344H77.5918V66.7407H67.5918ZM72.5918 80.2344H60.2505V90.2344H72.5918V80.2344ZM65.2505 85.2344V30.376H55.2505V85.2344H65.2505ZM60.2505 35.376H71.7861V25.376H60.2505V35.376ZM66.8109 30.8735L67.1772 34.5356L77.1275 33.5406L76.7613 29.8785L66.8109 30.8735ZM76.0408 37.1813C77.4336 35.4582 79.1013 34.6436 81.4907 34.6436V24.6436C76.1653 24.6436 71.6074 26.7585 68.2639 30.8949L76.0408 37.1813ZM81.4907 34.6436C84.9477 34.6436 87.1996 35.8231 88.8799 38.0635L96.8799 32.0635C93.1402 27.0773 87.7993 24.6436 81.4907 24.6436V34.6436ZM88.8897 38.0765C90.7275 40.5103 91.9448 44.2582 91.9448 49.895H101.945C101.945 42.9342 100.452 36.7944 96.8701 32.0505L88.8897 38.0765ZM91.9448 49.895V50.481H101.945V49.895H91.9448ZM89.6035 49.7119C89.6035 45.8739 89.0727 42.1768 87.3843 39.2824C85.4543 35.9738 82.2632 34.165 78.4512 34.165V44.165C78.7451 44.165 78.7605 44.2217 78.6621 44.1654C78.5619 44.1081 78.6093 44.0859 78.7465 44.3211C79.1089 44.9423 79.6035 46.5187 79.6035 49.7119H89.6035ZM78.4512 34.165C76.416 34.165 74.3224 34.5267 72.4218 35.5483C70.4501 36.6081 68.9802 38.2234 68.0582 40.2058L77.1254 44.4231C77.1654 44.3371 77.1855 44.3236 77.1683 44.3421C77.1494 44.3624 77.1359 44.3675 77.1563 44.3565C77.2089 44.3282 77.5566 44.165 78.4512 44.165V34.165ZM67.5918 42.3145V57.915H77.5918V42.3145H67.5918ZM68.0999 60.1111C69.0479 62.0502 70.4961 63.6709 72.4524 64.7577C74.3602 65.8177 76.4617 66.2109 78.5244 66.2109V56.2109C77.7063 56.2109 77.3785 56.0549 77.3088 56.0162C77.2735 55.9965 77.255 55.9809 77.2356 55.96C77.2138 55.9363 77.1569 55.8687 77.0837 55.719L68.0999 60.1111ZM78.5244 66.2109C82.2619 66.2109 85.3757 64.4267 87.2851 61.2292C88.9607 58.4231 89.5358 54.8384 89.6027 51.1202L79.6043 50.9404C79.5491 54.0093 79.0501 55.5149 78.6993 56.1024C78.5665 56.3248 78.5275 56.2945 78.6404 56.2301C78.7546 56.1651 78.7682 56.2109 78.5244 56.2109V66.2109ZM89.6035 51.0303V49.7119H79.6035V51.0303H89.6035ZM116.583 65.3125L113.106 68.9059L113.112 68.9117L113.118 68.9176L116.583 65.3125ZM113.177 39.3848L108.684 37.1913L108.677 37.2056L108.67 37.22L113.177 39.3848ZM119.769 32.207L122.292 36.5233L122.306 36.5153L122.32 36.5073L119.769 32.207ZM143.206 34.8438L139.544 38.248L139.55 38.2544L139.556 38.2609L143.206 34.8438ZM148.04 54.0698V59.0698H153.04V54.0698H148.04ZM123.504 54.0698V49.0698H117.418L118.599 55.04L123.504 54.0698ZM141.338 57.1094L145.155 53.8797L141.239 49.2511L137.441 53.9774L141.338 57.1094ZM146.978 63.7744L151.028 66.707L153.325 63.5347L150.795 60.5447L146.978 63.7744ZM140.423 68.8647L142.45 73.4354L142.459 73.4314L142.468 73.4273L140.423 68.8647ZM123.504 46.3428L118.554 45.6357L117.739 51.3428H123.504V46.3428ZM135.955 46.3428V51.3428H140.955V46.3428H135.955ZM135.955 45.3906L130.957 45.2672L130.955 45.3289V45.3906H135.955ZM134.454 40.813L130.839 44.2673L130.858 44.2876L130.878 44.3077L134.454 40.813ZM131.341 65.7324C126.324 65.7324 122.722 64.2781 120.047 61.7074L113.118 68.9176C117.963 73.5734 124.2 75.7324 131.341 75.7324V65.7324ZM120.059 61.7191C117.386 59.1324 115.943 55.7611 115.943 51.1401H105.943C105.943 58.1402 108.26 64.2172 113.106 68.9059L120.059 61.7191ZM115.943 51.1401V50.1147H105.943V51.1401H115.943ZM115.943 50.1147C115.943 46.6789 116.572 43.8645 117.684 41.5496L108.67 37.22C106.803 41.1062 105.943 45.4452 105.943 50.1147H115.943ZM117.67 41.5783C118.766 39.3322 120.293 37.6924 122.292 36.5233L117.245 27.8908C113.482 30.0908 110.614 33.2362 108.684 37.1913L117.67 41.5783ZM122.32 36.5073C124.299 35.3332 126.801 34.6436 130.022 34.6436V24.6436C125.333 24.6436 121 25.6629 117.218 27.9068L122.32 36.5073ZM130.022 34.6436C134.466 34.6436 137.435 35.9788 139.544 38.248L146.868 31.4395C142.532 26.7751 136.712 24.6436 130.022 24.6436V34.6436ZM139.556 38.2609C141.669 40.5184 143.04 43.96 143.04 49.2725H153.04C153.04 42.2314 151.188 36.0538 146.856 31.4266L139.556 38.2609ZM143.04 49.2725V54.0698H153.04V49.2725H143.04ZM148.04 49.0698H123.504V59.0698H148.04V49.0698ZM118.599 55.04C119.221 58.1849 120.675 60.9995 123.153 63.1117L129.641 55.5016C129.14 55.0747 128.666 54.3981 128.409 53.0996L118.599 55.04ZM123.153 63.1117C125.728 65.3062 128.887 66.2109 132.183 66.2109V56.2109C130.743 56.2109 130.045 55.8461 129.641 55.5016L123.153 63.1117ZM132.183 66.2109C137.409 66.2109 141.974 64.3011 145.236 60.2413L137.441 53.9774C136.309 55.3864 134.77 56.2109 132.183 56.2109V66.2109ZM137.521 60.3391L143.161 67.0041L150.795 60.5447L145.155 53.8797L137.521 60.3391ZM142.928 60.8419C141.991 62.136 140.558 63.3249 138.378 64.3022L142.468 73.4273C145.952 71.8655 148.889 69.6608 151.028 66.707L142.928 60.8419ZM138.396 64.2941C136.263 65.2401 133.93 65.7324 131.341 65.7324V75.7324C135.245 75.7324 138.968 74.9797 142.45 73.4354L138.396 64.2941ZM129.949 34.165C126.918 34.165 124.053 35.2295 121.908 37.6188C119.917 39.8361 118.97 42.7255 118.554 45.6357L128.454 47.0499C128.722 45.1749 129.191 44.4754 129.348 44.3001C129.403 44.2391 129.421 44.2355 129.431 44.2313C129.455 44.2214 129.601 44.165 129.949 44.165V34.165ZM123.504 51.3428H135.955V41.3428H123.504V51.3428ZM140.955 46.3428V45.3906H130.955V46.3428H140.955ZM140.954 45.514C141.025 42.6334 140.294 39.6352 138.03 37.3183L130.878 44.3077C130.831 44.2603 130.837 44.2339 130.865 44.3214C130.902 44.4328 130.97 44.7216 130.957 45.2672L140.954 45.514ZM138.069 37.3587C135.825 35.0108 132.857 34.165 129.949 34.165V44.165C130.465 44.165 130.729 44.2384 130.822 44.2726C130.892 44.2983 130.87 44.3004 130.839 44.2673L138.069 37.3587ZM185.109 70L180.72 72.3943L182.141 75H185.109V70ZM183.938 66.4478L188.822 65.3793L186.573 55.097L180.023 63.3365L183.938 66.4478ZM164.895 67.3633L161.615 71.1371L161.625 71.1458L161.635 71.1546L164.895 67.3633ZM183.388 45.7935V50.7935H188.388V45.7935H183.388ZM174.27 42.5708V47.5708H179.27V42.5708H174.27ZM161.928 42.5708H156.928V47.5708H161.928V42.5708ZM166.799 33.2324L163.847 29.1966L163.84 29.2018L163.833 29.2071L166.799 33.2324ZM195.766 43.4863H200.766V43.4437L200.765 43.4011L195.766 43.4863ZM195.766 61.0278H190.766V61.0614L190.767 61.0949L195.766 61.0278ZM197.451 69.3774H202.451V68.0789L201.819 66.9445L197.451 69.3774ZM197.451 70V75H202.451V70H197.451ZM181.191 60.9546L178.487 56.7487L178.464 56.7636L178.441 56.7787L181.191 60.9546ZM183.388 58.7207L187.807 61.0601L188.388 59.9626V58.7207H183.388ZM183.388 52.3853H188.388V47.3853H183.388V52.3853ZM174.489 60.918L171.073 64.5693L171.105 64.5992L171.138 64.6285L174.489 60.918ZM189.499 67.6057C189.394 67.4141 189.126 66.7676 188.822 65.3793L179.053 67.5162C179.433 69.2529 179.946 70.9746 180.72 72.3943L189.499 67.6057ZM180.023 63.3365C178.821 64.849 177.172 65.7324 174.416 65.7324V75.7324C179.814 75.7324 184.513 73.7594 187.852 69.559L180.023 63.3365ZM174.416 65.7324C171.768 65.7324 169.78 64.9702 168.154 63.572L161.635 71.1546C165.233 74.2486 169.593 75.7324 174.416 75.7324V65.7324ZM168.175 63.5895C166.639 62.2548 165.976 60.7801 165.976 58.8306H155.976C155.976 63.717 157.925 67.9307 161.615 71.1371L168.175 63.5895ZM165.976 58.8306C165.976 55.9577 166.927 54.3468 168.583 53.2003L162.891 44.9784C158.199 48.2265 155.976 53.1096 155.976 58.8306H165.976ZM168.583 53.2003C170.568 51.8259 174.007 50.7935 179.58 50.7935V40.7935C173.043 40.7935 167.253 41.9583 162.891 44.9784L168.583 53.2003ZM179.58 50.7935H183.388V40.7935H179.58V50.7935ZM188.388 45.7935V43.7061H178.388V45.7935H188.388ZM188.388 43.7061C188.388 41.279 187.878 38.5252 185.987 36.3409C183.977 34.0188 181.212 33.2495 178.664 33.2495V43.2495C178.982 43.2495 179.038 43.2966 178.934 43.2567C178.879 43.2354 178.794 43.1951 178.695 43.1264C178.595 43.0571 178.503 42.9745 178.427 42.8864C178.269 42.7039 178.257 42.5945 178.289 42.7052C178.325 42.8309 178.388 43.1411 178.388 43.7061H188.388ZM178.664 33.2495C176.449 33.2495 173.866 33.7946 171.862 35.7647C169.843 37.7501 169.27 40.3382 169.27 42.5708H179.27C179.27 42.2597 179.311 42.1932 179.28 42.2854C179.24 42.4028 179.124 42.6486 178.874 42.895C178.625 43.1395 178.389 43.2413 178.299 43.2709C178.232 43.2928 178.326 43.2495 178.664 43.2495V33.2495ZM174.27 37.5708H161.928V47.5708H174.27V37.5708ZM166.928 42.5708C166.928 40.4214 167.718 38.7656 169.765 37.2577L163.833 29.2071C159.385 32.4844 156.928 37.0542 156.928 42.5708H166.928ZM169.75 37.2683C171.973 35.6425 175.029 34.6436 179.287 34.6436V24.6436C173.437 24.6436 168.167 26.0372 163.847 29.1966L169.75 37.2683ZM179.287 34.6436C183.543 34.6436 186.268 35.6742 188.042 37.1677L194.481 29.5169C190.396 26.0788 185.137 24.6436 179.287 24.6436V34.6436ZM188.042 37.1677C189.723 38.5826 190.715 40.5225 190.767 43.5715L200.765 43.4011C200.671 37.8564 198.66 33.0336 194.481 29.5169L188.042 37.1677ZM190.766 43.4863V61.0278H200.766V43.4863H190.766ZM190.767 61.0949C190.82 65.0855 191.424 68.8323 193.083 71.8103L201.819 66.9445C201.329 66.0651 200.81 64.2456 200.766 60.9607L190.767 61.0949ZM192.451 69.3774V70H202.451V69.3774H192.451ZM197.451 65H185.109V75H197.451V65ZM177.382 66.9434C179.623 66.9434 181.921 66.4607 183.941 65.1304L178.441 56.7787C178.44 56.7796 178.385 56.8167 178.232 56.8566C178.071 56.8984 177.798 56.9434 177.382 56.9434V66.9434ZM183.895 65.1605C185.433 64.1715 186.863 62.8427 187.807 61.0601L178.969 56.3813C179.034 56.2588 179 56.4193 178.487 56.7487L183.895 65.1605ZM188.388 58.7207V52.3853H178.388V58.7207H188.388ZM183.388 47.3853H179.799V57.3853H183.388V47.3853ZM179.799 47.3853C177.005 47.3853 173.976 48.0006 171.625 50.1111C169.172 52.3137 168.354 55.3242 168.354 58.1714H178.354C178.354 57.6585 178.427 57.427 178.444 57.3804C178.451 57.3628 178.412 57.4564 178.305 57.5525C178.103 57.7342 178.296 57.3853 179.799 57.3853V47.3853ZM168.354 58.1714C168.354 60.5493 169.215 62.8312 171.073 64.5693L177.905 57.2666C178.023 57.3773 178.163 57.5578 178.259 57.7904C178.351 58.0139 178.354 58.1647 178.354 58.1714H168.354ZM171.138 64.6285C172.95 66.2654 175.169 66.9434 177.382 66.9434V56.9434C177.284 56.9434 177.325 56.9296 177.45 56.9743C177.587 57.0227 177.729 57.1062 177.841 57.2075L171.138 64.6285ZM228.294 55.2417L232.609 52.715L229.337 47.1279L224.759 51.7062L228.294 55.2417ZM224.815 58.7207L221.28 55.1852L219.815 56.6496V58.7207H224.815ZM224.815 70V75H229.815V70H224.815ZM212.474 70H207.474V75H212.474V70ZM212.474 13.7134V8.71338H207.474V13.7134H212.474ZM224.815 13.7134H229.815V8.71338H224.815V13.7134ZM224.815 43.5962H219.815V58.508L228.805 46.6104L224.815 43.5962ZM226.061 41.9482L222.163 38.8158L222.116 38.8742L222.071 38.9341L226.061 41.9482ZM235.362 30.376V25.376H232.966L231.465 27.2435L235.362 30.376ZM250.157 30.376L253.964 33.6179L260.983 25.376H250.157V30.376ZM236.278 46.6724L232.471 43.4304L230.081 46.237L232.055 49.3503L236.278 46.6724ZM251.073 70V75H260.165L255.295 67.3221L251.073 70ZM236.937 70L232.622 72.5267L234.071 75H236.937V70ZM224.759 51.7062L221.28 55.1852L228.351 62.2562L231.83 58.7772L224.759 51.7062ZM219.815 58.7207V70H229.815V58.7207H219.815ZM224.815 65H212.474V75H224.815V65ZM217.474 70V13.7134H207.474V70H217.474ZM212.474 18.7134H224.815V8.71338H212.474V18.7134ZM219.815 13.7134V43.5962H229.815V13.7134H219.815ZM228.805 46.6104L230.05 44.9624L222.071 38.9341L220.826 40.582L228.805 46.6104ZM229.958 45.0807L239.259 33.5085L231.465 27.2435L222.163 38.8158L229.958 45.0807ZM235.362 35.376H250.157V25.376H235.362V35.376ZM246.351 27.134L232.471 43.4304L240.084 49.9143L253.964 33.6179L246.351 27.134ZM232.055 49.3503L246.85 72.6779L255.295 67.3221L240.5 43.9944L232.055 49.3503ZM251.073 65H236.937V75H251.073V65ZM241.252 67.4733L232.609 52.715L223.98 57.7684L232.622 72.5267L241.252 67.4733ZM266.829 65.3125L263.352 68.9059L263.358 68.9117L263.364 68.9176L266.829 65.3125ZM263.423 39.3848L258.93 37.1913L258.923 37.2056L258.916 37.22L263.423 39.3848ZM270.015 32.207L272.539 36.5233L272.552 36.5153L272.566 36.5073L270.015 32.207ZM293.452 34.8438L289.79 38.248L289.796 38.2544L289.802 38.2609L293.452 34.8438ZM298.286 54.0698V59.0698H303.286V54.0698H298.286ZM273.75 54.0698V49.0698H267.664L268.845 55.04L273.75 54.0698ZM291.584 57.1094L295.401 53.8797L291.485 49.2511L287.687 53.9774L291.584 57.1094ZM297.224 63.7744L301.274 66.707L303.571 63.5347L301.041 60.5447L297.224 63.7744ZM290.669 68.8647L292.696 73.4354L292.705 73.4314L292.714 73.4273L290.669 68.8647ZM273.75 46.3428L268.8 45.6357L267.985 51.3428H273.75V46.3428ZM286.201 46.3428V51.3428H291.201V46.3428H286.201ZM286.201 45.3906L281.203 45.2672L281.201 45.3289V45.3906H286.201ZM284.7 40.813L281.085 44.2673L281.104 44.2876L281.124 44.3077L284.7 40.813ZM281.587 65.7324C276.57 65.7324 272.968 64.2781 270.293 61.7074L263.364 68.9176C268.209 73.5734 274.446 75.7324 281.587 75.7324V65.7324ZM270.305 61.7191C267.632 59.1324 266.189 55.7611 266.189 51.1401H256.189C256.189 58.1402 258.506 64.2172 263.352 68.9059L270.305 61.7191ZM266.189 51.1401V50.1147H256.189V51.1401H266.189ZM266.189 50.1147C266.189 46.6789 266.818 43.8645 267.93 41.5496L258.916 37.22C257.049 41.1062 256.189 45.4452 256.189 50.1147H266.189ZM267.916 41.5783C269.013 39.3322 270.539 37.6924 272.539 36.5233L267.491 27.8908C263.728 30.0908 260.861 33.2362 258.93 37.1913L267.916 41.5783ZM272.566 36.5073C274.545 35.3332 277.048 34.6436 280.269 34.6436V24.6436C275.579 24.6436 271.246 25.6629 267.464 27.9068L272.566 36.5073ZM280.269 34.6436C284.712 34.6436 287.681 35.9788 289.79 38.248L297.114 31.4395C292.778 26.7751 286.958 24.6436 280.269 24.6436V34.6436ZM289.802 38.2609C291.915 40.5184 293.286 43.96 293.286 49.2725H303.286C303.286 42.2314 301.434 36.0538 297.102 31.4266L289.802 38.2609ZM293.286 49.2725V54.0698H303.286V49.2725H293.286ZM298.286 49.0698H273.75V59.0698H298.286V49.0698ZM268.845 55.04C269.467 58.1849 270.922 60.9995 273.399 63.1117L279.887 55.5016C279.386 55.0747 278.912 54.3981 278.655 53.0996L268.845 55.04ZM273.399 63.1117C275.974 65.3062 279.133 66.2109 282.429 66.2109V56.2109C280.989 56.2109 280.291 55.8461 279.887 55.5016L273.399 63.1117ZM282.429 66.2109C287.655 66.2109 292.22 64.3011 295.482 60.2413L287.687 53.9774C286.555 55.3864 285.016 56.2109 282.429 56.2109V66.2109ZM287.768 60.3391L293.407 67.0041L301.041 60.5447L295.401 53.8797L287.768 60.3391ZM293.174 60.8419C292.237 62.136 290.804 63.3249 288.624 64.3022L292.714 73.4273C296.198 71.8655 299.135 69.6608 301.274 66.707L293.174 60.8419ZM288.642 64.2941C286.509 65.2401 284.176 65.7324 281.587 65.7324V75.7324C285.492 75.7324 289.214 74.9797 292.696 73.4354L288.642 64.2941ZM280.195 34.165C277.164 34.165 274.299 35.2295 272.154 37.6188C270.163 39.8361 269.216 42.7255 268.8 45.6357L278.7 47.0499C278.968 45.1749 279.437 44.4754 279.594 44.3001C279.649 44.2391 279.667 44.2355 279.678 44.2313C279.702 44.2214 279.847 44.165 280.195 44.165V34.165ZM273.75 51.3428H286.201V41.3428H273.75V51.3428ZM291.201 46.3428V45.3906H281.201V46.3428H291.201ZM291.2 45.514C291.271 42.6334 290.54 39.6352 288.276 37.3183L281.124 44.3077C281.077 44.2603 281.083 44.2339 281.111 44.3214C281.148 44.4328 281.216 44.7216 281.203 45.2672L291.2 45.514ZM288.315 37.3587C286.071 35.0108 283.103 34.165 280.195 34.165V44.165C280.711 44.165 280.975 44.2384 281.068 44.2726C281.139 44.2983 281.116 44.3004 281.085 44.2673L288.315 37.3587ZM337.003 41.5454L336.644 46.5325L341.901 46.9114L342.002 41.6412L337.003 41.5454ZM332.938 41.2524L333.298 36.2654L333.118 36.2524H332.938V41.2524ZM325.468 44.9146L320.908 42.8627L320.468 43.8414V44.9146H325.468ZM325.468 70V75H330.468V70H325.468ZM313.126 70H308.126V75H313.126V70ZM313.126 30.376V25.376H308.126V30.376H313.126ZM324.699 30.376L329.683 29.9815L329.319 25.376H324.699V30.376ZM325.102 35.4663L320.117 35.8608L321.464 52.8767L329.511 37.8236L325.102 35.4663ZM337.223 30.083L342.222 30.1788L342.295 26.3844L338.66 25.2939L337.223 30.083ZM337.363 36.5583L333.298 36.2654L332.579 46.2395L336.644 46.5325L337.363 36.5583ZM332.938 36.2524C328.111 36.2524 323.163 37.8515 320.908 42.8627L330.027 46.9664C330.08 46.849 330.121 46.775 330.36 46.6576C330.703 46.4896 331.474 46.2524 332.938 46.2524V36.2524ZM320.468 44.9146V70H330.468V44.9146H320.468ZM325.468 65H313.126V75H325.468V65ZM318.126 70V30.376H308.126V70H318.126ZM313.126 35.376H324.699V25.376H313.126V35.376ZM319.714 30.7704L320.117 35.8608L330.086 35.0719L329.683 29.9815L319.714 30.7704ZM329.511 37.8236C330.911 35.2044 332.294 34.6436 333.781 34.6436V24.6436C327.846 24.6436 323.442 27.9645 320.692 33.1091L329.511 37.8236ZM333.781 34.6436C334.747 34.6436 335.389 34.753 335.786 34.8721L338.66 25.2939C337.104 24.8271 335.451 24.6436 333.781 24.6436V34.6436ZM332.224 29.9872L332.004 41.4496L342.002 41.6412L342.222 30.1788L332.224 29.9872ZM356.421 51.6895L353.975 56.0502L353.995 56.0616L354.016 56.0728L356.421 51.6895ZM354.773 33.1958L357.85 37.1374L357.86 37.1296L357.87 37.1218L354.773 33.1958ZM383.924 42.5342V47.5342H388.924V42.5342H383.924ZM371.546 42.5342H366.546V47.5342H371.546V42.5342ZM363.27 38.8721L366.406 42.7658L366.439 42.7398L366.47 42.7132L363.27 38.8721ZM368.689 45.9033L367.768 50.8177L367.777 50.8194L368.689 45.9033ZM374.915 47.478L376.543 42.7503L376.535 42.7477L374.915 47.478ZM379.017 67.3267L376.137 63.2392L376.13 63.2444L376.122 63.2496L379.017 67.3267ZM349.024 57.2925V52.2925H344.024V57.2925H349.024ZM360.56 57.2925L365.558 57.1592L365.428 52.2925H360.56V57.2925ZM362.391 61.3208L359.445 65.3608L359.473 65.3811L359.501 65.4009L362.391 61.3208ZM370.667 61.5405L367.544 57.6362L367.516 57.6583L367.488 57.6809L370.667 61.5405ZM376.949 58.8672C376.949 55.6324 375.067 53.3196 372.802 52.011L367.799 60.6697C367.842 60.6945 367.6 60.5655 367.349 60.1795C367.069 59.7513 366.949 59.2673 366.949 58.8672H376.949ZM372.802 52.011C370.962 50.9476 368.175 50.16 365.123 49.4819L362.954 59.2437C366.054 59.9327 367.443 60.4636 367.799 60.6697L372.802 52.011ZM365.123 49.4819C362.347 48.8649 360.291 48.1094 358.827 47.3061L354.016 56.0728C356.556 57.4667 359.578 58.4935 362.954 59.2437L365.123 49.4819ZM358.868 47.3287C357.418 46.5154 356.543 45.6657 356.014 44.8658L347.674 50.3832C349.244 52.7571 351.421 54.6174 353.975 56.0502L358.868 47.3287ZM356.014 44.8658C355.548 44.1613 355.269 43.3176 355.269 42.168H345.269C345.269 45.1199 346.04 47.9139 347.674 50.3832L356.014 44.8658ZM355.269 42.168C355.269 40.1527 355.994 38.5855 357.85 37.1374L351.697 29.2542C347.547 32.4936 345.269 36.9078 345.269 42.168H355.269ZM357.87 37.1218C359.775 35.6189 362.522 34.6436 366.565 34.6436V24.6436C360.892 24.6436 355.777 26.0363 351.677 29.2698L357.87 37.1218ZM366.565 34.6436C371.055 34.6436 374.102 35.6581 376.173 37.2032L382.153 29.1884C377.876 25.9972 372.525 24.6436 366.565 24.6436V34.6436ZM376.173 37.2032C378.122 38.6571 378.924 40.3036 378.924 42.5342H388.924C388.924 37.0499 386.552 32.4708 382.153 29.1884L376.173 37.2032ZM383.924 37.5342H371.546V47.5342H383.924V37.5342ZM376.546 42.5342C376.546 40.1077 375.894 37.3866 373.733 35.3366C371.622 33.3333 368.908 32.7734 366.529 32.7734V42.7734C366.751 42.7734 366.917 42.7867 367.033 42.8025C367.149 42.8182 367.206 42.8351 367.216 42.8382C367.225 42.8409 367.184 42.829 367.112 42.788C367.038 42.746 366.946 42.6816 366.85 42.5906C366.754 42.4992 366.675 42.4005 366.614 42.3053C366.555 42.2116 366.526 42.1403 366.515 42.1085C366.504 42.0785 366.513 42.0919 366.523 42.1627C366.534 42.2342 366.546 42.3551 366.546 42.5342H376.546ZM366.529 32.7734C364.228 32.7734 361.964 33.4518 360.069 35.031L366.47 42.7132C366.457 42.7244 366.435 42.7401 366.407 42.7558C366.379 42.7715 366.355 42.7812 366.341 42.7862C366.326 42.791 366.33 42.7882 366.358 42.784C366.386 42.7796 366.441 42.7734 366.529 42.7734V32.7734ZM360.133 34.9783C358.145 36.58 356.951 38.872 356.951 41.5454H366.951C366.951 41.7118 366.912 41.9858 366.765 42.2829C366.622 42.5727 366.456 42.7258 366.406 42.7658L360.133 34.9783ZM356.951 41.5454C356.951 44.6494 358.63 47.0066 360.878 48.4371L366.247 40.0004C366.218 39.9823 366.427 40.1086 366.636 40.4566C366.864 40.8343 366.951 41.2381 366.951 41.5454H356.951ZM360.878 48.4371C362.775 49.644 365.248 50.3451 367.768 50.8177L369.611 40.989C367.444 40.5826 366.499 40.1607 366.247 40.0004L360.878 48.4371ZM367.777 50.8194C369.968 51.2259 371.797 51.6953 373.295 52.2083L376.535 42.7477C374.468 42.04 372.147 41.4597 369.602 40.9872L367.777 50.8194ZM373.287 52.2057C375.667 53.0249 376.998 54.0144 377.733 54.9204C378.413 55.7599 378.851 56.8525 378.851 58.501H388.851C388.851 54.8516 387.799 51.4581 385.501 48.6233C383.257 45.8549 380.12 43.9819 376.543 42.7503L373.287 52.2057ZM378.851 58.501C378.851 60.3222 378.172 61.8056 376.137 63.2392L381.896 71.4141C386.307 68.3067 388.851 63.9063 388.851 58.501H378.851ZM376.122 63.2496C373.992 64.762 370.941 65.7324 366.565 65.7324V75.7324C372.395 75.7324 377.645 74.4324 381.911 71.4037L376.122 63.2496ZM366.565 65.7324C363.778 65.7324 361.479 65.2333 359.568 64.3567L355.399 73.446C358.81 75.0109 362.566 75.7324 366.565 75.7324V65.7324ZM359.568 64.3567C357.593 63.4509 356.251 62.3178 355.336 61.0282L347.18 66.8136C349.243 69.7232 352.051 71.9104 355.399 73.446L359.568 64.3567ZM355.336 61.0282C354.378 59.6768 354.024 58.4623 354.024 57.2925H344.024C344.024 60.7613 345.16 63.9658 347.18 66.8136L355.336 61.0282ZM349.024 62.2925H360.56V52.2925H349.024V62.2925ZM355.561 57.4258C355.64 60.3586 356.697 63.3576 359.445 65.3608L365.336 57.2808C365.384 57.3156 365.444 57.3688 365.5 57.4387C365.557 57.5082 365.59 57.5689 365.606 57.6038C365.636 57.6694 365.569 57.5628 365.558 57.1592L355.561 57.4258ZM359.501 65.4009C361.724 66.9756 364.314 67.5659 366.895 67.5659V57.5659C365.814 57.5659 365.401 57.3262 365.281 57.2407L359.501 65.4009ZM366.895 67.5659C369.118 67.5659 371.736 67.1373 373.846 65.4002L367.488 57.6809C367.723 57.4874 367.877 57.4611 367.79 57.4847C367.692 57.5112 367.416 57.5659 366.895 57.5659V67.5659ZM373.79 65.4449C375.837 63.808 376.949 61.4777 376.949 58.8672H366.949C366.949 58.7526 366.975 58.4992 367.12 58.1978C367.264 57.8959 367.448 57.7129 367.544 57.6362L373.79 65.4449Z" fill="black" mask="url(#path-1-outside-1_3220_754)"/>
</svg>
