<svg width="28" height="17" viewBox="0 0 28 17" fill="none" xmlns="http://www.w3.org/2000/svg">
<path fill-rule="evenodd" clip-rule="evenodd" d="M0 3.38391C0 2.48644 0.356518 1.62573 0.991124 0.991124C1.62573 0.356518 2.48644 2.34356e-08 3.38391 2.34356e-08H16.0736C16.8943 -9.65226e-05 17.6871 0.29811 18.3044 0.839087C18.9216 1.38006 19.3212 2.12693 19.4287 2.94062L24.6907 0.602336C24.9482 0.487573 25.2304 0.439001 25.5115 0.461033C25.7926 0.483065 26.0638 0.575004 26.3003 0.728492C26.5368 0.88198 26.7313 1.09215 26.8659 1.3399C27.0006 1.58765 27.0711 1.86512 27.0713 2.14709V14.7725C27.071 15.0542 27.0004 15.3314 26.8659 15.579C26.7313 15.8265 26.5371 16.0366 26.3008 16.19C26.0645 16.3434 25.7936 16.4354 25.5127 16.4577C25.2318 16.4799 24.9499 16.4316 24.6924 16.3172L19.4287 13.9789C19.3212 14.7926 18.9216 15.5395 18.3044 16.0805C17.6871 16.6214 16.8943 16.9196 16.0736 16.9195H3.38391C2.48644 16.9195 1.62573 16.563 0.991124 15.9284C0.356518 15.2938 0 14.4331 0 13.5356V3.38391ZM19.4575 12.1398L25.3793 14.7725V2.14709L19.4575 4.77977V12.1398ZM3.38391 1.69195C2.93517 1.69195 2.50482 1.87021 2.18752 2.18752C1.87021 2.50482 1.69195 2.93517 1.69195 3.38391V13.5356C1.69195 13.9844 1.87021 14.4147 2.18752 14.732C2.50482 15.0493 2.93517 15.2276 3.38391 15.2276H16.0736C16.5223 15.2276 16.9527 15.0493 17.27 14.732C17.5873 14.4147 17.7655 13.9844 17.7655 13.5356V3.38391C17.7655 2.93517 17.5873 2.50482 17.27 2.18752C16.9527 1.87021 16.5223 1.69195 16.0736 1.69195H3.38391Z" fill="#9C9C9C"/>
</svg>
