<svg width="29" height="29" viewBox="0 0 29 29" fill="none" xmlns="http://www.w3.org/2000/svg">
<path d="M14.3448 28.6897C11.5077 28.6897 8.73427 27.8483 6.37527 26.2721C4.01628 24.6959 2.17767 22.4555 1.09194 19.8344C0.00621537 17.2132 -0.27786 14.3289 0.275638 11.5463C0.829136 8.76367 2.19535 6.20767 4.20151 4.20151C6.20767 2.19535 8.76367 0.829136 11.5463 0.275638C14.3289 -0.27786 17.2132 0.00621537 19.8344 1.09194C22.4555 2.17767 24.6959 4.01628 26.2721 6.37527C27.8483 8.73427 28.6897 11.5077 28.6897 14.3448C28.6897 18.1493 27.1783 21.798 24.4882 24.4882C21.798 27.1783 18.1493 28.6897 14.3448 28.6897ZM14.3448 2.04927C11.913 2.04927 9.53578 2.77039 7.51378 4.12144C5.49179 5.4725 3.91583 7.3928 2.98521 9.63952C2.05459 11.8862 1.8111 14.3585 2.28552 16.7436C2.75995 19.1287 3.93099 21.3195 5.65055 23.0391C7.37012 24.7587 9.56098 25.9297 11.9461 26.4041C14.3312 26.8786 16.8034 26.6351 19.0501 25.7045C21.2969 24.7738 23.2172 23.1979 24.5682 21.1759C25.9193 19.1539 26.6404 16.7767 26.6404 14.3448C26.6404 11.0838 25.345 7.95642 23.0391 5.65055C20.7332 3.34469 17.6058 2.04927 14.3448 2.04927Z" fill="#9C9C9C"/>
<path d="M19.048 20.4925L13.3203 14.7648V5.12305H15.3696V13.9144L20.4927 19.0478L19.048 20.4925Z" fill="#9C9C9C"/>
</svg>
