<svg width="25" height="25" viewBox="0 0 25 25" fill="none" xmlns="http://www.w3.org/2000/svg">
<path fill-rule="evenodd" clip-rule="evenodd" d="M3.09159e-07 2.08864C3.09159e-07 1.5347 0.220052 1.00345 0.611748 0.61175C1.00344 0.220055 1.5347 2.78445e-06 2.08864 2.78445e-06H22.9091C23.1836 -0.00044557 23.4555 0.0532561 23.7092 0.158033C23.963 0.26281 24.1936 0.416605 24.3878 0.610612C24.582 0.804619 24.736 1.03503 24.8411 1.28865C24.9461 1.54227 25.0001 1.81412 25 2.08864V22.9091C25.0003 23.1837 24.9465 23.4556 24.8416 23.7093C24.7367 23.9631 24.5828 24.1936 24.3887 24.3879C24.1946 24.5821 23.9641 24.7361 23.7104 24.8411C23.4567 24.9462 23.1848 25.0001 22.9102 25H2.08864C1.81426 25 1.54257 24.9459 1.28909 24.8409C1.03561 24.7359 0.805308 24.5819 0.611346 24.3879C0.417383 24.1938 0.263559 23.9634 0.158662 23.7099C0.0537651 23.4563 -0.000148972 23.1846 3.09159e-07 22.9102V2.08864ZM9.89545 9.53182H13.2807V11.2318C13.7693 10.2545 15.0193 9.375 16.8977 9.375C20.4989 9.375 21.3523 11.3216 21.3523 14.8932V21.5091H17.708V15.7068C17.708 13.6727 17.2193 12.525 15.9784 12.525C14.2568 12.525 13.5409 13.7625 13.5409 15.7068V21.5091H9.89545V9.53182ZM3.64545 21.3534H7.29091V9.375H3.64545V21.3523V21.3534ZM7.8125 5.46818C7.81937 5.78031 7.76383 6.09067 7.64914 6.38104C7.53444 6.67141 7.3629 6.93595 7.14458 7.15913C6.92626 7.38231 6.66557 7.55963 6.37779 7.68069C6.09001 7.80175 5.78095 7.86411 5.46875 7.86411C5.15655 7.86411 4.84749 7.80175 4.55971 7.68069C4.27193 7.55963 4.01124 7.38231 3.79292 7.15913C3.5746 6.93595 3.40306 6.67141 3.28836 6.38104C3.17367 6.09067 3.11813 5.78031 3.125 5.46818C3.13849 4.85552 3.39135 4.27249 3.82942 3.84396C4.26748 3.41544 4.85594 3.17548 5.46875 3.17548C6.08156 3.17548 6.67002 3.41544 7.10808 3.84396C7.54615 4.27249 7.79901 4.85552 7.8125 5.46818Z" fill="#939393"/>
</svg>
