<svg width="25" height="25" viewBox="0 0 25 25" fill="none" xmlns="http://www.w3.org/2000/svg">
<path d="M25 2.96546C24.0806 3.46658 23.093 3.80518 22.0547 3.95822C23.126 3.16969 23.9275 1.92863 24.3097 0.466612C23.3031 1.20203 22.2016 1.71968 21.0528 1.99707C20.2803 0.98245 19.2571 0.309944 18.142 0.0839617C17.027 -0.142021 15.8825 0.0911637 14.8862 0.747312C13.8899 1.40346 13.0976 2.44586 12.6323 3.71268C12.167 4.97949 12.0547 6.39985 12.3128 7.75322C10.2734 7.62725 8.27824 6.97519 6.45691 5.83934C4.63558 4.70349 3.02876 3.10924 1.74073 1.16006C1.30032 2.09459 1.04708 3.1781 1.04708 4.33203C1.04659 5.37084 1.25455 6.39374 1.65251 7.30997C2.05048 8.2262 2.62614 9.00743 3.32842 9.58435C2.51396 9.55247 1.71747 9.28176 1.00524 8.79474V8.876C1.00516 10.333 1.41486 11.7451 2.16483 12.8728C2.91479 14.0005 3.95883 14.7743 5.11979 15.0628C4.36425 15.3144 3.57211 15.3514 2.80322 15.1712C3.13078 16.4248 3.76882 17.5211 4.62804 18.3065C5.48725 19.0919 6.52462 19.5272 7.59491 19.5513C5.77803 21.3058 3.53418 22.2575 1.22435 22.2533C0.815182 22.2534 0.406364 22.224 0 22.1653C2.34462 24.0196 5.07392 25.0038 7.86136 25C17.2972 25 22.4555 15.3865 22.4555 7.04894C22.4555 6.77806 22.45 6.50447 22.4401 6.23359C23.4435 5.34102 24.3096 4.23573 24.9978 2.96952L25 2.96546Z" fill="#939393"/>
</svg>
